M48
; DRILL file {KiCad 5.1.2} date Fri 07 Jun 2019 03:21:20 PM MST
; FORMAT={-:-/ absolute / metric / decimal}
; #@! TF.CreationDate,2019-06-07T15:21:20-07:00
; #@! TF.GenerationSoftware,Kicad,Pcbnew,5.1.2
; #@! TF.FileFunction,Plated,1,2,PTH
FMAT,2
METRIC
T1C0.800
T2C0.800
T3C0.900
T4C1.000
T5C1.118
T6C1.200
%
G90
G05
T1
X140.97Y-123.698
X140.97Y-131.318
X110.871Y-44.831
X118.491Y-44.831
X99.822Y-115.316
X99.822Y-122.936
X107.315Y-89.408
X114.935Y-89.408
X158.75Y-81.153
X163.75Y-81.153
X102.87Y-99.695
X102.87Y-107.315
X118.745Y-39.624
X126.365Y-39.624
X119.126Y-100.33
X124.126Y-100.33
X122.936Y-88.646
X122.936Y-96.266
X122.047Y-115.57
X129.667Y-115.57
X135.636Y-72.644
X143.256Y-72.644
X117.983Y-122.682
X125.603Y-122.682
X106.807Y-99.568
X114.427Y-99.568
X122.174Y-104.648
X122.174Y-109.648
X152.019Y-69.469
X159.639Y-69.469
X127.889Y-104.648
X127.889Y-112.268
X107.395Y-83.566
X112.395Y-83.566
X128.27Y-122.809
X135.89Y-122.809
X154.686Y-61.849
X162.306Y-61.849
X110.998Y-48.26
X118.618Y-48.26
X115.443Y-83.566
X123.063Y-83.566
X129.54Y-85.979
X137.16Y-85.979
X135.763Y-67.056
X143.383Y-67.056
X126.238Y-49.403
X126.238Y-57.023
X112.014Y-115.316
X112.014Y-122.936
X103.632Y-115.316
X108.632Y-115.316
X138.176Y-45.212
X143.176Y-45.212
X148.336Y-65.659
X148.336Y-73.279
X152.146Y-73.279
X159.766Y-73.279
X140.589Y-78.359
X140.589Y-85.979
X130.556Y-51.816
X130.556Y-59.436
X133.35Y-115.316
X140.97Y-115.316
X119.126Y-89.281
X119.126Y-96.901
X122.047Y-119.126
X129.667Y-119.126
X149.352Y-51.816
X149.352Y-59.436
T2
X103.251Y-59.309
X159.258Y-76.581
X99.822Y-126.492
X103.124Y-70.739
X103.251Y-65.151
X128.778Y-92.456
X102.997Y-75.819
X135.763Y-48.895
X128.778Y-99.314
X104.902Y-94.869
T3
X153.162Y-51.816
X155.702Y-51.816
X130.81Y-41.609
X130.81Y-44.109
X130.81Y-46.609
X154.893Y-57.15
X157.393Y-57.15
X159.893Y-57.15
X122.428Y-44.196
X124.968Y-44.196
T4
X133.985Y-109.093
X143.985Y-109.093
T5
X106.807Y-104.648
X106.807Y-112.268
X109.347Y-104.648
X109.347Y-112.268
X111.887Y-104.648
X111.887Y-112.268
X114.427Y-104.648
X114.427Y-112.268
X135.763Y-51.816
X135.763Y-59.436
X138.303Y-51.816
X138.303Y-59.436
X140.843Y-51.816
X140.843Y-59.436
X143.383Y-51.816
X143.383Y-59.436
X148.336Y-78.486
X148.336Y-81.026
X148.336Y-83.566
X148.336Y-86.106
X155.956Y-78.486
X155.956Y-81.026
X155.956Y-83.566
X155.956Y-86.106
T6
X106.68Y-128.778
X129.18Y-128.778
X115.697Y-51.816
X115.697Y-79.316
X133.282Y-96.139
X160.782Y-96.139
T0
M30
