G04 #@! TF.GenerationSoftware,KiCad,Pcbnew,5.1.2*
G04 #@! TF.CreationDate,2019-06-12T13:08:09-07:00*
G04 #@! TF.ProjectId,light-tone-pedal,6c696768-742d-4746-9f6e-652d70656461,rev?*
G04 #@! TF.SameCoordinates,Original*
G04 #@! TF.FileFunction,Legend,Top*
G04 #@! TF.FilePolarity,Positive*
%FSLAX46Y46*%
G04 Gerber Fmt 4.6, Leading zero omitted, Abs format (unit mm)*
G04 Created by KiCad (PCBNEW 5.1.2) date 2019-06-12 13:08:09*
%MOMM*%
%LPD*%
G04 APERTURE LIST*
%ADD10C,0.150000*%
%ADD11C,0.152400*%
%ADD12C,0.100000*%
%ADD13C,0.120000*%
%ADD14C,0.050000*%
G04 APERTURE END LIST*
D10*
X145662285Y-117896666D02*
X146138476Y-117896666D01*
X145567047Y-118182380D02*
X145900380Y-117182380D01*
X146233714Y-118182380D01*
X146567047Y-117515714D02*
X146567047Y-118182380D01*
X146567047Y-117610952D02*
X146614666Y-117563333D01*
X146709904Y-117515714D01*
X146852761Y-117515714D01*
X146948000Y-117563333D01*
X146995619Y-117658571D01*
X146995619Y-118182380D01*
X147614666Y-118182380D02*
X147519428Y-118134761D01*
X147471809Y-118087142D01*
X147424190Y-117991904D01*
X147424190Y-117706190D01*
X147471809Y-117610952D01*
X147519428Y-117563333D01*
X147614666Y-117515714D01*
X147757523Y-117515714D01*
X147852761Y-117563333D01*
X147900380Y-117610952D01*
X147948000Y-117706190D01*
X147948000Y-117991904D01*
X147900380Y-118087142D01*
X147852761Y-118134761D01*
X147757523Y-118182380D01*
X147614666Y-118182380D01*
X148233714Y-117515714D02*
X148614666Y-117515714D01*
X148376571Y-117182380D02*
X148376571Y-118039523D01*
X148424190Y-118134761D01*
X148519428Y-118182380D01*
X148614666Y-118182380D01*
X148948000Y-118182380D02*
X148948000Y-117182380D01*
X149376571Y-118182380D02*
X149376571Y-117658571D01*
X149328952Y-117563333D01*
X149233714Y-117515714D01*
X149090857Y-117515714D01*
X148995619Y-117563333D01*
X148948000Y-117610952D01*
X150233714Y-118134761D02*
X150138476Y-118182380D01*
X149948000Y-118182380D01*
X149852761Y-118134761D01*
X149805142Y-118039523D01*
X149805142Y-117658571D01*
X149852761Y-117563333D01*
X149948000Y-117515714D01*
X150138476Y-117515714D01*
X150233714Y-117563333D01*
X150281333Y-117658571D01*
X150281333Y-117753809D01*
X149805142Y-117849047D01*
X150709904Y-118182380D02*
X150709904Y-117515714D01*
X150709904Y-117706190D02*
X150757523Y-117610952D01*
X150805142Y-117563333D01*
X150900380Y-117515714D01*
X150995619Y-117515714D01*
X152090857Y-118182380D02*
X152090857Y-117182380D01*
X152328952Y-117182380D01*
X152471809Y-117230000D01*
X152567047Y-117325238D01*
X152614666Y-117420476D01*
X152662285Y-117610952D01*
X152662285Y-117753809D01*
X152614666Y-117944285D01*
X152567047Y-118039523D01*
X152471809Y-118134761D01*
X152328952Y-118182380D01*
X152090857Y-118182380D01*
X153090857Y-118182380D02*
X153090857Y-117515714D01*
X153090857Y-117182380D02*
X153043238Y-117230000D01*
X153090857Y-117277619D01*
X153138476Y-117230000D01*
X153090857Y-117182380D01*
X153090857Y-117277619D01*
X153567047Y-118182380D02*
X153567047Y-117515714D01*
X153567047Y-117610952D02*
X153614666Y-117563333D01*
X153709904Y-117515714D01*
X153852761Y-117515714D01*
X153948000Y-117563333D01*
X153995619Y-117658571D01*
X153995619Y-118182380D01*
X153995619Y-117658571D02*
X154043238Y-117563333D01*
X154138476Y-117515714D01*
X154281333Y-117515714D01*
X154376571Y-117563333D01*
X154424190Y-117658571D01*
X154424190Y-118182380D01*
X155281333Y-118134761D02*
X155186095Y-118182380D01*
X154995619Y-118182380D01*
X154900380Y-118134761D01*
X154852761Y-118039523D01*
X154852761Y-117658571D01*
X154900380Y-117563333D01*
X154995619Y-117515714D01*
X155186095Y-117515714D01*
X155281333Y-117563333D01*
X155328952Y-117658571D01*
X155328952Y-117753809D01*
X154852761Y-117849047D01*
X155757523Y-117515714D02*
X155757523Y-118182380D01*
X155757523Y-117610952D02*
X155805142Y-117563333D01*
X155900380Y-117515714D01*
X156043238Y-117515714D01*
X156138476Y-117563333D01*
X156186095Y-117658571D01*
X156186095Y-118182380D01*
X156614666Y-118134761D02*
X156709904Y-118182380D01*
X156900380Y-118182380D01*
X156995619Y-118134761D01*
X157043238Y-118039523D01*
X157043238Y-117991904D01*
X156995619Y-117896666D01*
X156900380Y-117849047D01*
X156757523Y-117849047D01*
X156662285Y-117801428D01*
X156614666Y-117706190D01*
X156614666Y-117658571D01*
X156662285Y-117563333D01*
X156757523Y-117515714D01*
X156900380Y-117515714D01*
X156995619Y-117563333D01*
X157471809Y-118182380D02*
X157471809Y-117515714D01*
X157471809Y-117182380D02*
X157424190Y-117230000D01*
X157471809Y-117277619D01*
X157519428Y-117230000D01*
X157471809Y-117182380D01*
X157471809Y-117277619D01*
X158090857Y-118182380D02*
X157995619Y-118134761D01*
X157948000Y-118087142D01*
X157900380Y-117991904D01*
X157900380Y-117706190D01*
X157948000Y-117610952D01*
X157995619Y-117563333D01*
X158090857Y-117515714D01*
X158233714Y-117515714D01*
X158328952Y-117563333D01*
X158376571Y-117610952D01*
X158424190Y-117706190D01*
X158424190Y-117991904D01*
X158376571Y-118087142D01*
X158328952Y-118134761D01*
X158233714Y-118182380D01*
X158090857Y-118182380D01*
X158852761Y-117515714D02*
X158852761Y-118182380D01*
X158852761Y-117610952D02*
X158900380Y-117563333D01*
X158995619Y-117515714D01*
X159138476Y-117515714D01*
X159233714Y-117563333D01*
X159281333Y-117658571D01*
X159281333Y-118182380D01*
X160519428Y-117658571D02*
X160852761Y-117658571D01*
X160995619Y-118182380D02*
X160519428Y-118182380D01*
X160519428Y-117182380D01*
X160995619Y-117182380D01*
X161281333Y-117515714D02*
X161662285Y-117515714D01*
X161424190Y-118182380D02*
X161424190Y-117325238D01*
X161471809Y-117230000D01*
X161567047Y-117182380D01*
X161662285Y-117182380D01*
X161852761Y-117515714D02*
X162233714Y-117515714D01*
X161995619Y-118182380D02*
X161995619Y-117325238D01*
X162043238Y-117230000D01*
X162138476Y-117182380D01*
X162233714Y-117182380D01*
X162948000Y-118134761D02*
X162852761Y-118182380D01*
X162662285Y-118182380D01*
X162567047Y-118134761D01*
X162519428Y-118039523D01*
X162519428Y-117658571D01*
X162567047Y-117563333D01*
X162662285Y-117515714D01*
X162852761Y-117515714D01*
X162948000Y-117563333D01*
X162995619Y-117658571D01*
X162995619Y-117753809D01*
X162519428Y-117849047D01*
X163852761Y-118134761D02*
X163757523Y-118182380D01*
X163567047Y-118182380D01*
X163471809Y-118134761D01*
X163424190Y-118087142D01*
X163376571Y-117991904D01*
X163376571Y-117706190D01*
X163424190Y-117610952D01*
X163471809Y-117563333D01*
X163567047Y-117515714D01*
X163757523Y-117515714D01*
X163852761Y-117563333D01*
X164138476Y-117515714D02*
X164519428Y-117515714D01*
X164281333Y-117182380D02*
X164281333Y-118039523D01*
X164328952Y-118134761D01*
X164424190Y-118182380D01*
X164519428Y-118182380D01*
X164805142Y-118134761D02*
X164900380Y-118182380D01*
X165090857Y-118182380D01*
X165186095Y-118134761D01*
X165233714Y-118039523D01*
X165233714Y-117991904D01*
X165186095Y-117896666D01*
X165090857Y-117849047D01*
X164948000Y-117849047D01*
X164852761Y-117801428D01*
X164805142Y-117706190D01*
X164805142Y-117658571D01*
X164852761Y-117563333D01*
X164948000Y-117515714D01*
X165090857Y-117515714D01*
X165186095Y-117563333D01*
X145733714Y-119832380D02*
X145257523Y-119832380D01*
X145257523Y-118832380D01*
X146067047Y-119832380D02*
X146067047Y-119165714D01*
X146067047Y-118832380D02*
X146019428Y-118880000D01*
X146067047Y-118927619D01*
X146114666Y-118880000D01*
X146067047Y-118832380D01*
X146067047Y-118927619D01*
X146971809Y-119165714D02*
X146971809Y-119975238D01*
X146924190Y-120070476D01*
X146876571Y-120118095D01*
X146781333Y-120165714D01*
X146638476Y-120165714D01*
X146543238Y-120118095D01*
X146971809Y-119784761D02*
X146876571Y-119832380D01*
X146686095Y-119832380D01*
X146590857Y-119784761D01*
X146543238Y-119737142D01*
X146495619Y-119641904D01*
X146495619Y-119356190D01*
X146543238Y-119260952D01*
X146590857Y-119213333D01*
X146686095Y-119165714D01*
X146876571Y-119165714D01*
X146971809Y-119213333D01*
X147448000Y-119832380D02*
X147448000Y-118832380D01*
X147876571Y-119832380D02*
X147876571Y-119308571D01*
X147828952Y-119213333D01*
X147733714Y-119165714D01*
X147590857Y-119165714D01*
X147495619Y-119213333D01*
X147448000Y-119260952D01*
X148209904Y-119165714D02*
X148590857Y-119165714D01*
X148352761Y-118832380D02*
X148352761Y-119689523D01*
X148400380Y-119784761D01*
X148495619Y-119832380D01*
X148590857Y-119832380D01*
X148924190Y-119451428D02*
X149686095Y-119451428D01*
X150114666Y-119546666D02*
X150590857Y-119546666D01*
X150019428Y-119832380D02*
X150352761Y-118832380D01*
X150686095Y-119832380D01*
X150876571Y-119165714D02*
X151257523Y-119165714D01*
X151019428Y-119832380D02*
X151019428Y-118975238D01*
X151067047Y-118880000D01*
X151162285Y-118832380D01*
X151257523Y-118832380D01*
X151448000Y-119165714D02*
X151828952Y-119165714D01*
X151590857Y-119832380D02*
X151590857Y-118975238D01*
X151638476Y-118880000D01*
X151733714Y-118832380D01*
X151828952Y-118832380D01*
X152543238Y-119784761D02*
X152448000Y-119832380D01*
X152257523Y-119832380D01*
X152162285Y-119784761D01*
X152114666Y-119689523D01*
X152114666Y-119308571D01*
X152162285Y-119213333D01*
X152257523Y-119165714D01*
X152448000Y-119165714D01*
X152543238Y-119213333D01*
X152590857Y-119308571D01*
X152590857Y-119403809D01*
X152114666Y-119499047D01*
X153448000Y-119784761D02*
X153352761Y-119832380D01*
X153162285Y-119832380D01*
X153067047Y-119784761D01*
X153019428Y-119737142D01*
X152971809Y-119641904D01*
X152971809Y-119356190D01*
X153019428Y-119260952D01*
X153067047Y-119213333D01*
X153162285Y-119165714D01*
X153352761Y-119165714D01*
X153448000Y-119213333D01*
X153733714Y-119165714D02*
X154114666Y-119165714D01*
X153876571Y-118832380D02*
X153876571Y-119689523D01*
X153924190Y-119784761D01*
X154019428Y-119832380D01*
X154114666Y-119832380D01*
X154828952Y-119784761D02*
X154733714Y-119832380D01*
X154543238Y-119832380D01*
X154448000Y-119784761D01*
X154400380Y-119689523D01*
X154400380Y-119308571D01*
X154448000Y-119213333D01*
X154543238Y-119165714D01*
X154733714Y-119165714D01*
X154828952Y-119213333D01*
X154876571Y-119308571D01*
X154876571Y-119403809D01*
X154400380Y-119499047D01*
X155733714Y-119832380D02*
X155733714Y-118832380D01*
X155733714Y-119784761D02*
X155638476Y-119832380D01*
X155448000Y-119832380D01*
X155352761Y-119784761D01*
X155305142Y-119737142D01*
X155257523Y-119641904D01*
X155257523Y-119356190D01*
X155305142Y-119260952D01*
X155352761Y-119213333D01*
X155448000Y-119165714D01*
X155638476Y-119165714D01*
X155733714Y-119213333D01*
X156828952Y-118832380D02*
X157400380Y-118832380D01*
X157114666Y-119832380D02*
X157114666Y-118832380D01*
X157876571Y-119832380D02*
X157781333Y-119784761D01*
X157733714Y-119737142D01*
X157686095Y-119641904D01*
X157686095Y-119356190D01*
X157733714Y-119260952D01*
X157781333Y-119213333D01*
X157876571Y-119165714D01*
X158019428Y-119165714D01*
X158114666Y-119213333D01*
X158162285Y-119260952D01*
X158209904Y-119356190D01*
X158209904Y-119641904D01*
X158162285Y-119737142D01*
X158114666Y-119784761D01*
X158019428Y-119832380D01*
X157876571Y-119832380D01*
X158638476Y-119165714D02*
X158638476Y-119832380D01*
X158638476Y-119260952D02*
X158686095Y-119213333D01*
X158781333Y-119165714D01*
X158924190Y-119165714D01*
X159019428Y-119213333D01*
X159067047Y-119308571D01*
X159067047Y-119832380D01*
X159924190Y-119784761D02*
X159828952Y-119832380D01*
X159638476Y-119832380D01*
X159543238Y-119784761D01*
X159495619Y-119689523D01*
X159495619Y-119308571D01*
X159543238Y-119213333D01*
X159638476Y-119165714D01*
X159828952Y-119165714D01*
X159924190Y-119213333D01*
X159971809Y-119308571D01*
X159971809Y-119403809D01*
X159495619Y-119499047D01*
X161162285Y-119832380D02*
X161162285Y-118832380D01*
X161543238Y-118832380D01*
X161638476Y-118880000D01*
X161686095Y-118927619D01*
X161733714Y-119022857D01*
X161733714Y-119165714D01*
X161686095Y-119260952D01*
X161638476Y-119308571D01*
X161543238Y-119356190D01*
X161162285Y-119356190D01*
X162543238Y-119784761D02*
X162448000Y-119832380D01*
X162257523Y-119832380D01*
X162162285Y-119784761D01*
X162114666Y-119689523D01*
X162114666Y-119308571D01*
X162162285Y-119213333D01*
X162257523Y-119165714D01*
X162448000Y-119165714D01*
X162543238Y-119213333D01*
X162590857Y-119308571D01*
X162590857Y-119403809D01*
X162114666Y-119499047D01*
X163448000Y-119832380D02*
X163448000Y-118832380D01*
X163448000Y-119784761D02*
X163352761Y-119832380D01*
X163162285Y-119832380D01*
X163067047Y-119784761D01*
X163019428Y-119737142D01*
X162971809Y-119641904D01*
X162971809Y-119356190D01*
X163019428Y-119260952D01*
X163067047Y-119213333D01*
X163162285Y-119165714D01*
X163352761Y-119165714D01*
X163448000Y-119213333D01*
X164352761Y-119832380D02*
X164352761Y-119308571D01*
X164305142Y-119213333D01*
X164209904Y-119165714D01*
X164019428Y-119165714D01*
X163924190Y-119213333D01*
X164352761Y-119784761D02*
X164257523Y-119832380D01*
X164019428Y-119832380D01*
X163924190Y-119784761D01*
X163876571Y-119689523D01*
X163876571Y-119594285D01*
X163924190Y-119499047D01*
X164019428Y-119451428D01*
X164257523Y-119451428D01*
X164352761Y-119403809D01*
X164971809Y-119832380D02*
X164876571Y-119784761D01*
X164828952Y-119689523D01*
X164828952Y-118832380D01*
X151043238Y-121482380D02*
X151043238Y-120482380D01*
X151424190Y-120482380D01*
X151519428Y-120530000D01*
X151567047Y-120577619D01*
X151614666Y-120672857D01*
X151614666Y-120815714D01*
X151567047Y-120910952D01*
X151519428Y-120958571D01*
X151424190Y-121006190D01*
X151043238Y-121006190D01*
X152043238Y-121482380D02*
X152043238Y-120815714D01*
X152043238Y-121006190D02*
X152090857Y-120910952D01*
X152138476Y-120863333D01*
X152233714Y-120815714D01*
X152328952Y-120815714D01*
X152805142Y-121482380D02*
X152709904Y-121434761D01*
X152662285Y-121387142D01*
X152614666Y-121291904D01*
X152614666Y-121006190D01*
X152662285Y-120910952D01*
X152709904Y-120863333D01*
X152805142Y-120815714D01*
X152948000Y-120815714D01*
X153043238Y-120863333D01*
X153090857Y-120910952D01*
X153138476Y-121006190D01*
X153138476Y-121291904D01*
X153090857Y-121387142D01*
X153043238Y-121434761D01*
X152948000Y-121482380D01*
X152805142Y-121482380D01*
X153424190Y-120815714D02*
X153805142Y-120815714D01*
X153567047Y-120482380D02*
X153567047Y-121339523D01*
X153614666Y-121434761D01*
X153709904Y-121482380D01*
X153805142Y-121482380D01*
X154281333Y-121482380D02*
X154186095Y-121434761D01*
X154138476Y-121387142D01*
X154090857Y-121291904D01*
X154090857Y-121006190D01*
X154138476Y-120910952D01*
X154186095Y-120863333D01*
X154281333Y-120815714D01*
X154424190Y-120815714D01*
X154519428Y-120863333D01*
X154567047Y-120910952D01*
X154614666Y-121006190D01*
X154614666Y-121291904D01*
X154567047Y-121387142D01*
X154519428Y-121434761D01*
X154424190Y-121482380D01*
X154281333Y-121482380D01*
X155662285Y-120482380D02*
X155995619Y-121482380D01*
X156328952Y-120482380D01*
X157043238Y-121434761D02*
X156948000Y-121482380D01*
X156757523Y-121482380D01*
X156662285Y-121434761D01*
X156614666Y-121339523D01*
X156614666Y-120958571D01*
X156662285Y-120863333D01*
X156757523Y-120815714D01*
X156948000Y-120815714D01*
X157043238Y-120863333D01*
X157090857Y-120958571D01*
X157090857Y-121053809D01*
X156614666Y-121149047D01*
X157519428Y-121482380D02*
X157519428Y-120815714D01*
X157519428Y-121006190D02*
X157567047Y-120910952D01*
X157614666Y-120863333D01*
X157709904Y-120815714D01*
X157805142Y-120815714D01*
X158138476Y-121387142D02*
X158186095Y-121434761D01*
X158138476Y-121482380D01*
X158090857Y-121434761D01*
X158138476Y-121387142D01*
X158138476Y-121482380D01*
X159900380Y-121482380D02*
X159328952Y-121482380D01*
X159614666Y-121482380D02*
X159614666Y-120482380D01*
X159519428Y-120625238D01*
X159424190Y-120720476D01*
X159328952Y-120768095D01*
X96012095Y-122690000D02*
X95916857Y-122642380D01*
X95774000Y-122642380D01*
X95631142Y-122690000D01*
X95535904Y-122785238D01*
X95488285Y-122880476D01*
X95440666Y-123070952D01*
X95440666Y-123213809D01*
X95488285Y-123404285D01*
X95535904Y-123499523D01*
X95631142Y-123594761D01*
X95774000Y-123642380D01*
X95869238Y-123642380D01*
X96012095Y-123594761D01*
X96059714Y-123547142D01*
X96059714Y-123213809D01*
X95869238Y-123213809D01*
X96488285Y-123642380D02*
X96488285Y-122642380D01*
X97059714Y-123642380D01*
X97059714Y-122642380D01*
X97535904Y-123642380D02*
X97535904Y-122642380D01*
X97774000Y-122642380D01*
X97916857Y-122690000D01*
X98012095Y-122785238D01*
X98059714Y-122880476D01*
X98107333Y-123070952D01*
X98107333Y-123213809D01*
X98059714Y-123404285D01*
X98012095Y-123499523D01*
X97916857Y-123594761D01*
X97774000Y-123642380D01*
X97535904Y-123642380D01*
X98790190Y-113355380D02*
X98790190Y-112355380D01*
X99266380Y-113355380D02*
X99266380Y-112355380D01*
X99837809Y-113355380D01*
X99837809Y-112355380D01*
D11*
X148844000Y-87376000D02*
X155448000Y-87376000D01*
X155448000Y-77216000D02*
X152450800Y-77216000D01*
X152450800Y-77216000D02*
X151841200Y-77216000D01*
X151841200Y-77216000D02*
X149479000Y-77216000D01*
D12*
X152450800Y-77216000D02*
G75*
G02X151841200Y-77216000I-304800J0D01*
G01*
D11*
X115697000Y-111760000D02*
X115697000Y-105156000D01*
X105537000Y-105156000D02*
X105537000Y-108153200D01*
X105537000Y-108153200D02*
X105537000Y-108762800D01*
X105537000Y-108762800D02*
X105537000Y-111125000D01*
D12*
X105537000Y-108153200D02*
G75*
G02X105537000Y-108762800I0J-304800D01*
G01*
D11*
X144653000Y-58928000D02*
X144653000Y-52324000D01*
X134493000Y-52324000D02*
X134493000Y-55321200D01*
X134493000Y-55321200D02*
X134493000Y-55930800D01*
X134493000Y-55930800D02*
X134493000Y-58293000D01*
D12*
X134493000Y-55321200D02*
G75*
G02X134493000Y-55930800I0J-304800D01*
G01*
D13*
X114512000Y-80186000D02*
X107577000Y-80186000D01*
X123817000Y-80186000D02*
X116882000Y-80186000D01*
X114512000Y-50946000D02*
X107577000Y-50946000D01*
X123817000Y-50946000D02*
X116882000Y-50946000D01*
X107577000Y-50946000D02*
X107577000Y-80186000D01*
X123817000Y-50946000D02*
X123817000Y-80186000D01*
X102512000Y-113946000D02*
X109752000Y-113946000D01*
X102512000Y-116686000D02*
X109752000Y-116686000D01*
X102512000Y-113946000D02*
X102512000Y-116686000D01*
X109752000Y-113946000D02*
X109752000Y-116686000D01*
X118006000Y-98960000D02*
X125246000Y-98960000D01*
X118006000Y-101700000D02*
X125246000Y-101700000D01*
X118006000Y-98960000D02*
X118006000Y-101700000D01*
X125246000Y-98960000D02*
X125246000Y-101700000D01*
X144296000Y-43842000D02*
X144296000Y-46582000D01*
X137056000Y-43842000D02*
X137056000Y-46582000D01*
X137056000Y-46582000D02*
X144296000Y-46582000D01*
X137056000Y-43842000D02*
X144296000Y-43842000D01*
X113515000Y-82196000D02*
X113515000Y-84936000D01*
X106275000Y-82196000D02*
X106275000Y-84936000D01*
X106275000Y-84936000D02*
X113515000Y-84936000D01*
X106275000Y-82196000D02*
X113515000Y-82196000D01*
X130050000Y-132398000D02*
X105810000Y-132398000D01*
X130050000Y-125158000D02*
X105810000Y-125158000D01*
X130050000Y-132398000D02*
X130050000Y-129963000D01*
X130050000Y-127593000D02*
X130050000Y-125158000D01*
X105810000Y-132398000D02*
X105810000Y-129963000D01*
X105810000Y-127593000D02*
X105810000Y-125158000D01*
X161652000Y-104259000D02*
X132412000Y-104259000D01*
X161652000Y-88019000D02*
X132412000Y-88019000D01*
X161652000Y-104259000D02*
X161652000Y-97324000D01*
X161652000Y-94954000D02*
X161652000Y-88019000D01*
X132412000Y-104259000D02*
X132412000Y-97324000D01*
X132412000Y-94954000D02*
X132412000Y-88019000D01*
X132365000Y-104973000D02*
X145605000Y-104973000D01*
X132365000Y-113213000D02*
X145605000Y-113213000D01*
X132365000Y-104973000D02*
X132365000Y-113213000D01*
X145605000Y-104973000D02*
X145605000Y-113213000D01*
X123544000Y-103528000D02*
X123544000Y-110768000D01*
X120804000Y-103528000D02*
X120804000Y-110768000D01*
X123544000Y-103528000D02*
X120804000Y-103528000D01*
X123544000Y-110768000D02*
X120804000Y-110768000D01*
X164870000Y-79783000D02*
X164870000Y-82523000D01*
X157630000Y-79783000D02*
X157630000Y-82523000D01*
X157630000Y-82523000D02*
X164870000Y-82523000D01*
X157630000Y-79783000D02*
X164870000Y-79783000D01*
X122138000Y-45276000D02*
X122138000Y-45432000D01*
X122138000Y-42960000D02*
X122138000Y-43116000D01*
X124739130Y-45275837D02*
G75*
G02X122657039Y-45276000I-1041130J1079837D01*
G01*
X124739130Y-43116163D02*
G75*
G03X122657039Y-43116000I-1041130J-1079837D01*
G01*
X125370335Y-45274608D02*
G75*
G02X122138000Y-45431516I-1672335J1078608D01*
G01*
X125370335Y-43117392D02*
G75*
G03X122138000Y-42960484I-1672335J-1078608D01*
G01*
X156104335Y-50737392D02*
G75*
G03X152872000Y-50580484I-1672335J-1078608D01*
G01*
X156104335Y-52894608D02*
G75*
G02X152872000Y-53051516I-1672335J1078608D01*
G01*
X155473130Y-50736163D02*
G75*
G03X153391039Y-50736000I-1041130J-1079837D01*
G01*
X155473130Y-52895837D02*
G75*
G02X153391039Y-52896000I-1041130J1079837D01*
G01*
X152872000Y-50580000D02*
X152872000Y-50736000D01*
X152872000Y-52896000D02*
X152872000Y-53052000D01*
X142716000Y-74014000D02*
X142716000Y-73684000D01*
X136176000Y-74014000D02*
X142716000Y-74014000D01*
X136176000Y-73684000D02*
X136176000Y-74014000D01*
X142716000Y-71274000D02*
X142716000Y-71604000D01*
X136176000Y-71274000D02*
X142716000Y-71274000D01*
X136176000Y-71604000D02*
X136176000Y-71274000D01*
X136303000Y-66016000D02*
X136303000Y-65686000D01*
X136303000Y-65686000D02*
X142843000Y-65686000D01*
X142843000Y-65686000D02*
X142843000Y-66016000D01*
X136303000Y-68096000D02*
X136303000Y-68426000D01*
X136303000Y-68426000D02*
X142843000Y-68426000D01*
X142843000Y-68426000D02*
X142843000Y-68096000D01*
X101500000Y-106775000D02*
X101830000Y-106775000D01*
X101500000Y-100235000D02*
X101500000Y-106775000D01*
X101830000Y-100235000D02*
X101500000Y-100235000D01*
X104240000Y-106775000D02*
X103910000Y-106775000D01*
X104240000Y-100235000D02*
X104240000Y-106775000D01*
X103910000Y-100235000D02*
X104240000Y-100235000D01*
X110644000Y-122396000D02*
X110974000Y-122396000D01*
X110644000Y-115856000D02*
X110644000Y-122396000D01*
X110974000Y-115856000D02*
X110644000Y-115856000D01*
X113384000Y-122396000D02*
X113054000Y-122396000D01*
X113384000Y-115856000D02*
X113384000Y-122396000D01*
X113054000Y-115856000D02*
X113384000Y-115856000D01*
X117756000Y-96361000D02*
X118086000Y-96361000D01*
X117756000Y-89821000D02*
X117756000Y-96361000D01*
X118086000Y-89821000D02*
X117756000Y-89821000D01*
X120496000Y-96361000D02*
X120166000Y-96361000D01*
X120496000Y-89821000D02*
X120496000Y-96361000D01*
X120166000Y-89821000D02*
X120496000Y-89821000D01*
X114395000Y-90448000D02*
X114395000Y-90778000D01*
X114395000Y-90778000D02*
X107855000Y-90778000D01*
X107855000Y-90778000D02*
X107855000Y-90448000D01*
X114395000Y-88368000D02*
X114395000Y-88038000D01*
X114395000Y-88038000D02*
X107855000Y-88038000D01*
X107855000Y-88038000D02*
X107855000Y-88368000D01*
X124868000Y-56483000D02*
X125198000Y-56483000D01*
X124868000Y-49943000D02*
X124868000Y-56483000D01*
X125198000Y-49943000D02*
X124868000Y-49943000D01*
X127608000Y-56483000D02*
X127278000Y-56483000D01*
X127608000Y-49943000D02*
X127608000Y-56483000D01*
X127278000Y-49943000D02*
X127608000Y-49943000D01*
X119285000Y-38584000D02*
X119285000Y-38254000D01*
X119285000Y-38254000D02*
X125825000Y-38254000D01*
X125825000Y-38254000D02*
X125825000Y-38584000D01*
X119285000Y-40664000D02*
X119285000Y-40994000D01*
X119285000Y-40994000D02*
X125825000Y-40994000D01*
X125825000Y-40994000D02*
X125825000Y-40664000D01*
X142340000Y-124238000D02*
X142010000Y-124238000D01*
X142340000Y-130778000D02*
X142340000Y-124238000D01*
X142010000Y-130778000D02*
X142340000Y-130778000D01*
X139600000Y-124238000D02*
X139930000Y-124238000D01*
X139600000Y-130778000D02*
X139600000Y-124238000D01*
X139930000Y-130778000D02*
X139600000Y-130778000D01*
X133890000Y-114276000D02*
X133890000Y-113946000D01*
X133890000Y-113946000D02*
X140430000Y-113946000D01*
X140430000Y-113946000D02*
X140430000Y-114276000D01*
X133890000Y-116356000D02*
X133890000Y-116686000D01*
X133890000Y-116686000D02*
X140430000Y-116686000D01*
X140430000Y-116686000D02*
X140430000Y-116356000D01*
X125063000Y-124052000D02*
X125063000Y-123722000D01*
X118523000Y-124052000D02*
X125063000Y-124052000D01*
X118523000Y-123722000D02*
X118523000Y-124052000D01*
X125063000Y-121312000D02*
X125063000Y-121642000D01*
X118523000Y-121312000D02*
X125063000Y-121312000D01*
X118523000Y-121642000D02*
X118523000Y-121312000D01*
X135350000Y-123849000D02*
X135350000Y-124179000D01*
X135350000Y-124179000D02*
X128810000Y-124179000D01*
X128810000Y-124179000D02*
X128810000Y-123849000D01*
X135350000Y-121769000D02*
X135350000Y-121439000D01*
X135350000Y-121439000D02*
X128810000Y-121439000D01*
X128810000Y-121439000D02*
X128810000Y-121769000D01*
X130080000Y-84939000D02*
X130080000Y-84609000D01*
X130080000Y-84609000D02*
X136620000Y-84609000D01*
X136620000Y-84609000D02*
X136620000Y-84939000D01*
X130080000Y-87019000D02*
X130080000Y-87349000D01*
X130080000Y-87349000D02*
X136620000Y-87349000D01*
X136620000Y-87349000D02*
X136620000Y-87019000D01*
X139219000Y-85439000D02*
X139549000Y-85439000D01*
X139219000Y-78899000D02*
X139219000Y-85439000D01*
X139549000Y-78899000D02*
X139219000Y-78899000D01*
X141959000Y-85439000D02*
X141629000Y-85439000D01*
X141959000Y-78899000D02*
X141959000Y-85439000D01*
X141629000Y-78899000D02*
X141959000Y-78899000D01*
X107347000Y-98528000D02*
X107347000Y-98198000D01*
X107347000Y-98198000D02*
X113887000Y-98198000D01*
X113887000Y-98198000D02*
X113887000Y-98528000D01*
X107347000Y-100608000D02*
X107347000Y-100938000D01*
X107347000Y-100938000D02*
X113887000Y-100938000D01*
X113887000Y-100938000D02*
X113887000Y-100608000D01*
X126519000Y-111728000D02*
X126849000Y-111728000D01*
X126519000Y-105188000D02*
X126519000Y-111728000D01*
X126849000Y-105188000D02*
X126519000Y-105188000D01*
X129259000Y-111728000D02*
X128929000Y-111728000D01*
X129259000Y-105188000D02*
X129259000Y-111728000D01*
X128929000Y-105188000D02*
X129259000Y-105188000D01*
X149376000Y-66199000D02*
X149706000Y-66199000D01*
X149706000Y-66199000D02*
X149706000Y-72739000D01*
X149706000Y-72739000D02*
X149376000Y-72739000D01*
X147296000Y-66199000D02*
X146966000Y-66199000D01*
X146966000Y-66199000D02*
X146966000Y-72739000D01*
X146966000Y-72739000D02*
X147296000Y-72739000D01*
X161766000Y-63219000D02*
X161766000Y-62889000D01*
X155226000Y-63219000D02*
X161766000Y-63219000D01*
X155226000Y-62889000D02*
X155226000Y-63219000D01*
X161766000Y-60479000D02*
X161766000Y-60809000D01*
X155226000Y-60479000D02*
X161766000Y-60479000D01*
X155226000Y-60809000D02*
X155226000Y-60479000D01*
X129516000Y-58896000D02*
X129186000Y-58896000D01*
X129186000Y-58896000D02*
X129186000Y-52356000D01*
X129186000Y-52356000D02*
X129516000Y-52356000D01*
X131596000Y-58896000D02*
X131926000Y-58896000D01*
X131926000Y-58896000D02*
X131926000Y-52356000D01*
X131926000Y-52356000D02*
X131596000Y-52356000D01*
X118078000Y-49300000D02*
X118078000Y-49630000D01*
X118078000Y-49630000D02*
X111538000Y-49630000D01*
X111538000Y-49630000D02*
X111538000Y-49300000D01*
X118078000Y-47220000D02*
X118078000Y-46890000D01*
X118078000Y-46890000D02*
X111538000Y-46890000D01*
X111538000Y-46890000D02*
X111538000Y-47220000D01*
X111411000Y-43461000D02*
X111411000Y-43791000D01*
X117951000Y-43461000D02*
X111411000Y-43461000D01*
X117951000Y-43791000D02*
X117951000Y-43461000D01*
X111411000Y-46201000D02*
X111411000Y-45871000D01*
X117951000Y-46201000D02*
X111411000Y-46201000D01*
X117951000Y-45871000D02*
X117951000Y-46201000D01*
X115983000Y-82526000D02*
X115983000Y-82196000D01*
X115983000Y-82196000D02*
X122523000Y-82196000D01*
X122523000Y-82196000D02*
X122523000Y-82526000D01*
X115983000Y-84606000D02*
X115983000Y-84936000D01*
X115983000Y-84936000D02*
X122523000Y-84936000D01*
X122523000Y-84936000D02*
X122523000Y-84606000D01*
X123976000Y-89186000D02*
X124306000Y-89186000D01*
X124306000Y-89186000D02*
X124306000Y-95726000D01*
X124306000Y-95726000D02*
X123976000Y-95726000D01*
X121896000Y-89186000D02*
X121566000Y-89186000D01*
X121566000Y-89186000D02*
X121566000Y-95726000D01*
X121566000Y-95726000D02*
X121896000Y-95726000D01*
X122587000Y-117756000D02*
X122587000Y-118086000D01*
X129127000Y-117756000D02*
X122587000Y-117756000D01*
X129127000Y-118086000D02*
X129127000Y-117756000D01*
X122587000Y-120496000D02*
X122587000Y-120166000D01*
X129127000Y-120496000D02*
X122587000Y-120496000D01*
X129127000Y-120166000D02*
X129127000Y-120496000D01*
X122587000Y-114530000D02*
X122587000Y-114200000D01*
X122587000Y-114200000D02*
X129127000Y-114200000D01*
X129127000Y-114200000D02*
X129127000Y-114530000D01*
X122587000Y-116610000D02*
X122587000Y-116940000D01*
X122587000Y-116940000D02*
X129127000Y-116940000D01*
X129127000Y-116940000D02*
X129127000Y-116610000D01*
X159226000Y-74649000D02*
X159226000Y-74319000D01*
X152686000Y-74649000D02*
X159226000Y-74649000D01*
X152686000Y-74319000D02*
X152686000Y-74649000D01*
X159226000Y-71909000D02*
X159226000Y-72239000D01*
X152686000Y-71909000D02*
X159226000Y-71909000D01*
X152686000Y-72239000D02*
X152686000Y-71909000D01*
X159099000Y-70839000D02*
X159099000Y-70509000D01*
X152559000Y-70839000D02*
X159099000Y-70839000D01*
X152559000Y-70509000D02*
X152559000Y-70839000D01*
X159099000Y-68099000D02*
X159099000Y-68429000D01*
X152559000Y-68099000D02*
X159099000Y-68099000D01*
X152559000Y-68429000D02*
X152559000Y-68099000D01*
X148312000Y-58896000D02*
X147982000Y-58896000D01*
X147982000Y-58896000D02*
X147982000Y-52356000D01*
X147982000Y-52356000D02*
X148312000Y-52356000D01*
X150392000Y-58896000D02*
X150722000Y-58896000D01*
X150722000Y-58896000D02*
X150722000Y-52356000D01*
X150722000Y-52356000D02*
X150392000Y-52356000D01*
D12*
X128710000Y-38309000D02*
X128710000Y-38809000D01*
X128710000Y-38309000D02*
X129210000Y-38309000D01*
X128710000Y-50209000D02*
X129210000Y-50209000D01*
X128710000Y-50209000D02*
X128710000Y-49709000D01*
X132910000Y-50209000D02*
X132410000Y-50209000D01*
X132910000Y-50209000D02*
X132910000Y-49709000D01*
X132910000Y-38309000D02*
X132410000Y-38309000D01*
X132910000Y-38309000D02*
X132910000Y-38809000D01*
X163193000Y-55050000D02*
X162693000Y-55050000D01*
X163193000Y-55050000D02*
X163193000Y-55550000D01*
X151293000Y-55050000D02*
X151293000Y-55550000D01*
X151293000Y-55050000D02*
X151793000Y-55050000D01*
X151293000Y-59250000D02*
X151293000Y-58750000D01*
X151293000Y-59250000D02*
X151793000Y-59250000D01*
X163193000Y-59250000D02*
X163193000Y-58750000D01*
X163193000Y-59250000D02*
X162693000Y-59250000D01*
D13*
X100862000Y-115856000D02*
X101192000Y-115856000D01*
X101192000Y-115856000D02*
X101192000Y-122396000D01*
X101192000Y-122396000D02*
X100862000Y-122396000D01*
X98782000Y-115856000D02*
X98452000Y-115856000D01*
X98452000Y-115856000D02*
X98452000Y-122396000D01*
X98452000Y-122396000D02*
X98782000Y-122396000D01*
D10*
X98298095Y-82685000D02*
X98202857Y-82637380D01*
X98060000Y-82637380D01*
X97917142Y-82685000D01*
X97821904Y-82780238D01*
X97774285Y-82875476D01*
X97726666Y-83065952D01*
X97726666Y-83208809D01*
X97774285Y-83399285D01*
X97821904Y-83494523D01*
X97917142Y-83589761D01*
X98060000Y-83637380D01*
X98155238Y-83637380D01*
X98298095Y-83589761D01*
X98345714Y-83542142D01*
X98345714Y-83208809D01*
X98155238Y-83208809D01*
X98774285Y-83637380D02*
X98774285Y-82637380D01*
X99345714Y-83637380D01*
X99345714Y-82637380D01*
X99821904Y-83637380D02*
X99821904Y-82637380D01*
X100060000Y-82637380D01*
X100202857Y-82685000D01*
X100298095Y-82780238D01*
X100345714Y-82875476D01*
X100393333Y-83065952D01*
X100393333Y-83208809D01*
X100345714Y-83399285D01*
X100298095Y-83494523D01*
X100202857Y-83589761D01*
X100060000Y-83637380D01*
X99821904Y-83637380D01*
X128143095Y-102243000D02*
X128047857Y-102195380D01*
X127905000Y-102195380D01*
X127762142Y-102243000D01*
X127666904Y-102338238D01*
X127619285Y-102433476D01*
X127571666Y-102623952D01*
X127571666Y-102766809D01*
X127619285Y-102957285D01*
X127666904Y-103052523D01*
X127762142Y-103147761D01*
X127905000Y-103195380D01*
X128000238Y-103195380D01*
X128143095Y-103147761D01*
X128190714Y-103100142D01*
X128190714Y-102766809D01*
X128000238Y-102766809D01*
X128619285Y-103195380D02*
X128619285Y-102195380D01*
X129190714Y-103195380D01*
X129190714Y-102195380D01*
X129666904Y-103195380D02*
X129666904Y-102195380D01*
X129905000Y-102195380D01*
X130047857Y-102243000D01*
X130143095Y-102338238D01*
X130190714Y-102433476D01*
X130238333Y-102623952D01*
X130238333Y-102766809D01*
X130190714Y-102957285D01*
X130143095Y-103052523D01*
X130047857Y-103147761D01*
X129905000Y-103195380D01*
X129666904Y-103195380D01*
X127905000Y-95337380D02*
X128095476Y-95337380D01*
X128190714Y-95385000D01*
X128285952Y-95480238D01*
X128333571Y-95670714D01*
X128333571Y-96004047D01*
X128285952Y-96194523D01*
X128190714Y-96289761D01*
X128095476Y-96337380D01*
X127905000Y-96337380D01*
X127809761Y-96289761D01*
X127714523Y-96194523D01*
X127666904Y-96004047D01*
X127666904Y-95670714D01*
X127714523Y-95480238D01*
X127809761Y-95385000D01*
X127905000Y-95337380D01*
X128762142Y-95337380D02*
X128762142Y-96146904D01*
X128809761Y-96242142D01*
X128857380Y-96289761D01*
X128952619Y-96337380D01*
X129143095Y-96337380D01*
X129238333Y-96289761D01*
X129285952Y-96242142D01*
X129333571Y-96146904D01*
X129333571Y-95337380D01*
X129666904Y-95337380D02*
X130238333Y-95337380D01*
X129952619Y-96337380D02*
X129952619Y-95337380D01*
X95377095Y-125738000D02*
X95281857Y-125690380D01*
X95139000Y-125690380D01*
X94996142Y-125738000D01*
X94900904Y-125833238D01*
X94853285Y-125928476D01*
X94805666Y-126118952D01*
X94805666Y-126261809D01*
X94853285Y-126452285D01*
X94900904Y-126547523D01*
X94996142Y-126642761D01*
X95139000Y-126690380D01*
X95234238Y-126690380D01*
X95377095Y-126642761D01*
X95424714Y-126595142D01*
X95424714Y-126261809D01*
X95234238Y-126261809D01*
X95853285Y-126690380D02*
X95853285Y-125690380D01*
X96424714Y-126690380D01*
X96424714Y-125690380D01*
X96900904Y-126690380D02*
X96900904Y-125690380D01*
X97139000Y-125690380D01*
X97281857Y-125738000D01*
X97377095Y-125833238D01*
X97424714Y-125928476D01*
X97472333Y-126118952D01*
X97472333Y-126261809D01*
X97424714Y-126452285D01*
X97377095Y-126547523D01*
X97281857Y-126642761D01*
X97139000Y-126690380D01*
X96900904Y-126690380D01*
X97980666Y-75017380D02*
X98314000Y-76017380D01*
X98647333Y-75017380D01*
X99552095Y-75922142D02*
X99504476Y-75969761D01*
X99361619Y-76017380D01*
X99266380Y-76017380D01*
X99123523Y-75969761D01*
X99028285Y-75874523D01*
X98980666Y-75779285D01*
X98933047Y-75588809D01*
X98933047Y-75445952D01*
X98980666Y-75255476D01*
X99028285Y-75160238D01*
X99123523Y-75065000D01*
X99266380Y-75017380D01*
X99361619Y-75017380D01*
X99504476Y-75065000D01*
X99552095Y-75112619D01*
X100552095Y-75922142D02*
X100504476Y-75969761D01*
X100361619Y-76017380D01*
X100266380Y-76017380D01*
X100123523Y-75969761D01*
X100028285Y-75874523D01*
X99980666Y-75779285D01*
X99933047Y-75588809D01*
X99933047Y-75445952D01*
X99980666Y-75255476D01*
X100028285Y-75160238D01*
X100123523Y-75065000D01*
X100266380Y-75017380D01*
X100361619Y-75017380D01*
X100504476Y-75065000D01*
X100552095Y-75112619D01*
X98234666Y-69810380D02*
X98568000Y-70810380D01*
X98901333Y-69810380D01*
X99806095Y-70715142D02*
X99758476Y-70762761D01*
X99615619Y-70810380D01*
X99520380Y-70810380D01*
X99377523Y-70762761D01*
X99282285Y-70667523D01*
X99234666Y-70572285D01*
X99187047Y-70381809D01*
X99187047Y-70238952D01*
X99234666Y-70048476D01*
X99282285Y-69953238D01*
X99377523Y-69858000D01*
X99520380Y-69810380D01*
X99615619Y-69810380D01*
X99758476Y-69858000D01*
X99806095Y-69905619D01*
X100806095Y-70715142D02*
X100758476Y-70762761D01*
X100615619Y-70810380D01*
X100520380Y-70810380D01*
X100377523Y-70762761D01*
X100282285Y-70667523D01*
X100234666Y-70572285D01*
X100187047Y-70381809D01*
X100187047Y-70238952D01*
X100234666Y-70048476D01*
X100282285Y-69953238D01*
X100377523Y-69858000D01*
X100520380Y-69810380D01*
X100615619Y-69810380D01*
X100758476Y-69858000D01*
X100806095Y-69905619D01*
X98234666Y-64603380D02*
X98568000Y-65603380D01*
X98901333Y-64603380D01*
X99806095Y-65508142D02*
X99758476Y-65555761D01*
X99615619Y-65603380D01*
X99520380Y-65603380D01*
X99377523Y-65555761D01*
X99282285Y-65460523D01*
X99234666Y-65365285D01*
X99187047Y-65174809D01*
X99187047Y-65031952D01*
X99234666Y-64841476D01*
X99282285Y-64746238D01*
X99377523Y-64651000D01*
X99520380Y-64603380D01*
X99615619Y-64603380D01*
X99758476Y-64651000D01*
X99806095Y-64698619D01*
X100806095Y-65508142D02*
X100758476Y-65555761D01*
X100615619Y-65603380D01*
X100520380Y-65603380D01*
X100377523Y-65555761D01*
X100282285Y-65460523D01*
X100234666Y-65365285D01*
X100187047Y-65174809D01*
X100187047Y-65031952D01*
X100234666Y-64841476D01*
X100282285Y-64746238D01*
X100377523Y-64651000D01*
X100520380Y-64603380D01*
X100615619Y-64603380D01*
X100758476Y-64651000D01*
X100806095Y-64698619D01*
X98107666Y-58634380D02*
X98441000Y-59634380D01*
X98774333Y-58634380D01*
X99679095Y-59539142D02*
X99631476Y-59586761D01*
X99488619Y-59634380D01*
X99393380Y-59634380D01*
X99250523Y-59586761D01*
X99155285Y-59491523D01*
X99107666Y-59396285D01*
X99060047Y-59205809D01*
X99060047Y-59062952D01*
X99107666Y-58872476D01*
X99155285Y-58777238D01*
X99250523Y-58682000D01*
X99393380Y-58634380D01*
X99488619Y-58634380D01*
X99631476Y-58682000D01*
X99679095Y-58729619D01*
X100679095Y-59539142D02*
X100631476Y-59586761D01*
X100488619Y-59634380D01*
X100393380Y-59634380D01*
X100250523Y-59586761D01*
X100155285Y-59491523D01*
X100107666Y-59396285D01*
X100060047Y-59205809D01*
X100060047Y-59062952D01*
X100107666Y-58872476D01*
X100155285Y-58777238D01*
X100250523Y-58682000D01*
X100393380Y-58634380D01*
X100488619Y-58634380D01*
X100631476Y-58682000D01*
X100679095Y-58729619D01*
X103568666Y-91781380D02*
X103902000Y-92781380D01*
X104235333Y-91781380D01*
X105140095Y-92686142D02*
X105092476Y-92733761D01*
X104949619Y-92781380D01*
X104854380Y-92781380D01*
X104711523Y-92733761D01*
X104616285Y-92638523D01*
X104568666Y-92543285D01*
X104521047Y-92352809D01*
X104521047Y-92209952D01*
X104568666Y-92019476D01*
X104616285Y-91924238D01*
X104711523Y-91829000D01*
X104854380Y-91781380D01*
X104949619Y-91781380D01*
X105092476Y-91829000D01*
X105140095Y-91876619D01*
X106140095Y-92686142D02*
X106092476Y-92733761D01*
X105949619Y-92781380D01*
X105854380Y-92781380D01*
X105711523Y-92733761D01*
X105616285Y-92638523D01*
X105568666Y-92543285D01*
X105521047Y-92352809D01*
X105521047Y-92209952D01*
X105568666Y-92019476D01*
X105616285Y-91924238D01*
X105711523Y-91829000D01*
X105854380Y-91781380D01*
X105949619Y-91781380D01*
X106092476Y-91829000D01*
X106140095Y-91876619D01*
X161226666Y-76287380D02*
X161560000Y-77287380D01*
X161893333Y-76287380D01*
X162798095Y-77192142D02*
X162750476Y-77239761D01*
X162607619Y-77287380D01*
X162512380Y-77287380D01*
X162369523Y-77239761D01*
X162274285Y-77144523D01*
X162226666Y-77049285D01*
X162179047Y-76858809D01*
X162179047Y-76715952D01*
X162226666Y-76525476D01*
X162274285Y-76430238D01*
X162369523Y-76335000D01*
X162512380Y-76287380D01*
X162607619Y-76287380D01*
X162750476Y-76335000D01*
X162798095Y-76382619D01*
X163798095Y-77192142D02*
X163750476Y-77239761D01*
X163607619Y-77287380D01*
X163512380Y-77287380D01*
X163369523Y-77239761D01*
X163274285Y-77144523D01*
X163226666Y-77049285D01*
X163179047Y-76858809D01*
X163179047Y-76715952D01*
X163226666Y-76525476D01*
X163274285Y-76430238D01*
X163369523Y-76335000D01*
X163512380Y-76287380D01*
X163607619Y-76287380D01*
X163750476Y-76335000D01*
X163798095Y-76382619D01*
X137604666Y-48347380D02*
X137938000Y-49347380D01*
X138271333Y-48347380D01*
X139176095Y-49252142D02*
X139128476Y-49299761D01*
X138985619Y-49347380D01*
X138890380Y-49347380D01*
X138747523Y-49299761D01*
X138652285Y-49204523D01*
X138604666Y-49109285D01*
X138557047Y-48918809D01*
X138557047Y-48775952D01*
X138604666Y-48585476D01*
X138652285Y-48490238D01*
X138747523Y-48395000D01*
X138890380Y-48347380D01*
X138985619Y-48347380D01*
X139128476Y-48395000D01*
X139176095Y-48442619D01*
X140176095Y-49252142D02*
X140128476Y-49299761D01*
X139985619Y-49347380D01*
X139890380Y-49347380D01*
X139747523Y-49299761D01*
X139652285Y-49204523D01*
X139604666Y-49109285D01*
X139557047Y-48918809D01*
X139557047Y-48775952D01*
X139604666Y-48585476D01*
X139652285Y-48490238D01*
X139747523Y-48395000D01*
X139890380Y-48347380D01*
X139985619Y-48347380D01*
X140128476Y-48395000D01*
X140176095Y-48442619D01*
D14*
X150895683Y-80508335D02*
X150895683Y-81836796D01*
X150973828Y-81993085D01*
X151051973Y-82071230D01*
X151208262Y-82149375D01*
X151520841Y-82149375D01*
X151677131Y-82071230D01*
X151755276Y-81993085D01*
X151833420Y-81836796D01*
X151833420Y-80508335D01*
X152458579Y-80508335D02*
X153474460Y-80508335D01*
X152927447Y-81133493D01*
X153161881Y-81133493D01*
X153318171Y-81211638D01*
X153396316Y-81289782D01*
X153474460Y-81446072D01*
X153474460Y-81836796D01*
X153396316Y-81993085D01*
X153318171Y-82071230D01*
X153161881Y-82149375D01*
X152693013Y-82149375D01*
X152536723Y-82071230D01*
X152458579Y-81993085D01*
X109591335Y-109454316D02*
X110919796Y-109454316D01*
X111076085Y-109376171D01*
X111154230Y-109298026D01*
X111232375Y-109141737D01*
X111232375Y-108829158D01*
X111154230Y-108672868D01*
X111076085Y-108594723D01*
X110919796Y-108516579D01*
X109591335Y-108516579D01*
X109747624Y-107813276D02*
X109669480Y-107735131D01*
X109591335Y-107578841D01*
X109591335Y-107188118D01*
X109669480Y-107031828D01*
X109747624Y-106953683D01*
X109903914Y-106875539D01*
X110060203Y-106875539D01*
X110294638Y-106953683D01*
X111232375Y-107891420D01*
X111232375Y-106875539D01*
X137785335Y-56876316D02*
X139113796Y-56876316D01*
X139270085Y-56798171D01*
X139348230Y-56720026D01*
X139426375Y-56563737D01*
X139426375Y-56251158D01*
X139348230Y-56094868D01*
X139270085Y-56016723D01*
X139113796Y-55938579D01*
X137785335Y-55938579D01*
X139426375Y-54297539D02*
X139426375Y-55235276D01*
X139426375Y-54766407D02*
X137785335Y-54766407D01*
X138019769Y-54922697D01*
X138176059Y-55078986D01*
X138254203Y-55235276D01*
D10*
X116181142Y-65825666D02*
X116228761Y-65873285D01*
X116276380Y-66016142D01*
X116276380Y-66111380D01*
X116228761Y-66254238D01*
X116133523Y-66349476D01*
X116038285Y-66397095D01*
X115847809Y-66444714D01*
X115704952Y-66444714D01*
X115514476Y-66397095D01*
X115419238Y-66349476D01*
X115324000Y-66254238D01*
X115276380Y-66111380D01*
X115276380Y-66016142D01*
X115324000Y-65873285D01*
X115371619Y-65825666D01*
X116276380Y-64873285D02*
X116276380Y-65444714D01*
X116276380Y-65159000D02*
X115276380Y-65159000D01*
X115419238Y-65254238D01*
X115514476Y-65349476D01*
X115562095Y-65444714D01*
X105965333Y-115673142D02*
X105917714Y-115720761D01*
X105774857Y-115768380D01*
X105679619Y-115768380D01*
X105536761Y-115720761D01*
X105441523Y-115625523D01*
X105393904Y-115530285D01*
X105346285Y-115339809D01*
X105346285Y-115196952D01*
X105393904Y-115006476D01*
X105441523Y-114911238D01*
X105536761Y-114816000D01*
X105679619Y-114768380D01*
X105774857Y-114768380D01*
X105917714Y-114816000D01*
X105965333Y-114863619D01*
X106346285Y-114863619D02*
X106393904Y-114816000D01*
X106489142Y-114768380D01*
X106727238Y-114768380D01*
X106822476Y-114816000D01*
X106870095Y-114863619D01*
X106917714Y-114958857D01*
X106917714Y-115054095D01*
X106870095Y-115196952D01*
X106298666Y-115768380D01*
X106917714Y-115768380D01*
X121372333Y-100560142D02*
X121324714Y-100607761D01*
X121181857Y-100655380D01*
X121086619Y-100655380D01*
X120943761Y-100607761D01*
X120848523Y-100512523D01*
X120800904Y-100417285D01*
X120753285Y-100226809D01*
X120753285Y-100083952D01*
X120800904Y-99893476D01*
X120848523Y-99798238D01*
X120943761Y-99703000D01*
X121086619Y-99655380D01*
X121181857Y-99655380D01*
X121324714Y-99703000D01*
X121372333Y-99750619D01*
X121705666Y-99655380D02*
X122324714Y-99655380D01*
X121991380Y-100036333D01*
X122134238Y-100036333D01*
X122229476Y-100083952D01*
X122277095Y-100131571D01*
X122324714Y-100226809D01*
X122324714Y-100464904D01*
X122277095Y-100560142D01*
X122229476Y-100607761D01*
X122134238Y-100655380D01*
X121848523Y-100655380D01*
X121753285Y-100607761D01*
X121705666Y-100560142D01*
X140509333Y-45442142D02*
X140461714Y-45489761D01*
X140318857Y-45537380D01*
X140223619Y-45537380D01*
X140080761Y-45489761D01*
X139985523Y-45394523D01*
X139937904Y-45299285D01*
X139890285Y-45108809D01*
X139890285Y-44965952D01*
X139937904Y-44775476D01*
X139985523Y-44680238D01*
X140080761Y-44585000D01*
X140223619Y-44537380D01*
X140318857Y-44537380D01*
X140461714Y-44585000D01*
X140509333Y-44632619D01*
X141366476Y-44870714D02*
X141366476Y-45537380D01*
X141128380Y-44489761D02*
X140890285Y-45204047D01*
X141509333Y-45204047D01*
X109728333Y-83923142D02*
X109680714Y-83970761D01*
X109537857Y-84018380D01*
X109442619Y-84018380D01*
X109299761Y-83970761D01*
X109204523Y-83875523D01*
X109156904Y-83780285D01*
X109109285Y-83589809D01*
X109109285Y-83446952D01*
X109156904Y-83256476D01*
X109204523Y-83161238D01*
X109299761Y-83066000D01*
X109442619Y-83018380D01*
X109537857Y-83018380D01*
X109680714Y-83066000D01*
X109728333Y-83113619D01*
X110633095Y-83018380D02*
X110156904Y-83018380D01*
X110109285Y-83494571D01*
X110156904Y-83446952D01*
X110252142Y-83399333D01*
X110490238Y-83399333D01*
X110585476Y-83446952D01*
X110633095Y-83494571D01*
X110680714Y-83589809D01*
X110680714Y-83827904D01*
X110633095Y-83923142D01*
X110585476Y-83970761D01*
X110490238Y-84018380D01*
X110252142Y-84018380D01*
X110156904Y-83970761D01*
X110109285Y-83923142D01*
X117583333Y-129262142D02*
X117535714Y-129309761D01*
X117392857Y-129357380D01*
X117297619Y-129357380D01*
X117154761Y-129309761D01*
X117059523Y-129214523D01*
X117011904Y-129119285D01*
X116964285Y-128928809D01*
X116964285Y-128785952D01*
X117011904Y-128595476D01*
X117059523Y-128500238D01*
X117154761Y-128405000D01*
X117297619Y-128357380D01*
X117392857Y-128357380D01*
X117535714Y-128405000D01*
X117583333Y-128452619D01*
X118440476Y-128357380D02*
X118250000Y-128357380D01*
X118154761Y-128405000D01*
X118107142Y-128452619D01*
X118011904Y-128595476D01*
X117964285Y-128785952D01*
X117964285Y-129166904D01*
X118011904Y-129262142D01*
X118059523Y-129309761D01*
X118154761Y-129357380D01*
X118345238Y-129357380D01*
X118440476Y-129309761D01*
X118488095Y-129262142D01*
X118535714Y-129166904D01*
X118535714Y-128928809D01*
X118488095Y-128833571D01*
X118440476Y-128785952D01*
X118345238Y-128738333D01*
X118154761Y-128738333D01*
X118059523Y-128785952D01*
X118011904Y-128833571D01*
X117964285Y-128928809D01*
X146865333Y-96496142D02*
X146817714Y-96543761D01*
X146674857Y-96591380D01*
X146579619Y-96591380D01*
X146436761Y-96543761D01*
X146341523Y-96448523D01*
X146293904Y-96353285D01*
X146246285Y-96162809D01*
X146246285Y-96019952D01*
X146293904Y-95829476D01*
X146341523Y-95734238D01*
X146436761Y-95639000D01*
X146579619Y-95591380D01*
X146674857Y-95591380D01*
X146817714Y-95639000D01*
X146865333Y-95686619D01*
X147198666Y-95591380D02*
X147865333Y-95591380D01*
X147436761Y-96591380D01*
X138818333Y-109323142D02*
X138770714Y-109370761D01*
X138627857Y-109418380D01*
X138532619Y-109418380D01*
X138389761Y-109370761D01*
X138294523Y-109275523D01*
X138246904Y-109180285D01*
X138199285Y-108989809D01*
X138199285Y-108846952D01*
X138246904Y-108656476D01*
X138294523Y-108561238D01*
X138389761Y-108466000D01*
X138532619Y-108418380D01*
X138627857Y-108418380D01*
X138770714Y-108466000D01*
X138818333Y-108513619D01*
X139389761Y-108846952D02*
X139294523Y-108799333D01*
X139246904Y-108751714D01*
X139199285Y-108656476D01*
X139199285Y-108608857D01*
X139246904Y-108513619D01*
X139294523Y-108466000D01*
X139389761Y-108418380D01*
X139580238Y-108418380D01*
X139675476Y-108466000D01*
X139723095Y-108513619D01*
X139770714Y-108608857D01*
X139770714Y-108656476D01*
X139723095Y-108751714D01*
X139675476Y-108799333D01*
X139580238Y-108846952D01*
X139389761Y-108846952D01*
X139294523Y-108894571D01*
X139246904Y-108942190D01*
X139199285Y-109037428D01*
X139199285Y-109227904D01*
X139246904Y-109323142D01*
X139294523Y-109370761D01*
X139389761Y-109418380D01*
X139580238Y-109418380D01*
X139675476Y-109370761D01*
X139723095Y-109323142D01*
X139770714Y-109227904D01*
X139770714Y-109037428D01*
X139723095Y-108942190D01*
X139675476Y-108894571D01*
X139580238Y-108846952D01*
X122658142Y-107354666D02*
X122705761Y-107402285D01*
X122753380Y-107545142D01*
X122753380Y-107640380D01*
X122705761Y-107783238D01*
X122610523Y-107878476D01*
X122515285Y-107926095D01*
X122324809Y-107973714D01*
X122181952Y-107973714D01*
X121991476Y-107926095D01*
X121896238Y-107878476D01*
X121801000Y-107783238D01*
X121753380Y-107640380D01*
X121753380Y-107545142D01*
X121801000Y-107402285D01*
X121848619Y-107354666D01*
X122753380Y-106878476D02*
X122753380Y-106688000D01*
X122705761Y-106592761D01*
X122658142Y-106545142D01*
X122515285Y-106449904D01*
X122324809Y-106402285D01*
X121943857Y-106402285D01*
X121848619Y-106449904D01*
X121801000Y-106497523D01*
X121753380Y-106592761D01*
X121753380Y-106783238D01*
X121801000Y-106878476D01*
X121848619Y-106926095D01*
X121943857Y-106973714D01*
X122181952Y-106973714D01*
X122277190Y-106926095D01*
X122324809Y-106878476D01*
X122372428Y-106783238D01*
X122372428Y-106592761D01*
X122324809Y-106497523D01*
X122277190Y-106449904D01*
X122181952Y-106402285D01*
X160607142Y-81510142D02*
X160559523Y-81557761D01*
X160416666Y-81605380D01*
X160321428Y-81605380D01*
X160178571Y-81557761D01*
X160083333Y-81462523D01*
X160035714Y-81367285D01*
X159988095Y-81176809D01*
X159988095Y-81033952D01*
X160035714Y-80843476D01*
X160083333Y-80748238D01*
X160178571Y-80653000D01*
X160321428Y-80605380D01*
X160416666Y-80605380D01*
X160559523Y-80653000D01*
X160607142Y-80700619D01*
X161559523Y-81605380D02*
X160988095Y-81605380D01*
X161273809Y-81605380D02*
X161273809Y-80605380D01*
X161178571Y-80748238D01*
X161083333Y-80843476D01*
X160988095Y-80891095D01*
X162178571Y-80605380D02*
X162273809Y-80605380D01*
X162369047Y-80653000D01*
X162416666Y-80700619D01*
X162464285Y-80795857D01*
X162511904Y-80986333D01*
X162511904Y-81224428D01*
X162464285Y-81414904D01*
X162416666Y-81510142D01*
X162369047Y-81557761D01*
X162273809Y-81605380D01*
X162178571Y-81605380D01*
X162083333Y-81557761D01*
X162035714Y-81510142D01*
X161988095Y-81414904D01*
X161940476Y-81224428D01*
X161940476Y-80986333D01*
X161988095Y-80795857D01*
X162035714Y-80700619D01*
X162083333Y-80653000D01*
X162178571Y-80605380D01*
X118768904Y-44775380D02*
X118768904Y-43775380D01*
X119007000Y-43775380D01*
X119149857Y-43823000D01*
X119245095Y-43918238D01*
X119292714Y-44013476D01*
X119340333Y-44203952D01*
X119340333Y-44346809D01*
X119292714Y-44537285D01*
X119245095Y-44632523D01*
X119149857Y-44727761D01*
X119007000Y-44775380D01*
X118768904Y-44775380D01*
X120292714Y-44775380D02*
X119721285Y-44775380D01*
X120007000Y-44775380D02*
X120007000Y-43775380D01*
X119911761Y-43918238D01*
X119816523Y-44013476D01*
X119721285Y-44061095D01*
X153693904Y-49308380D02*
X153693904Y-48308380D01*
X153932000Y-48308380D01*
X154074857Y-48356000D01*
X154170095Y-48451238D01*
X154217714Y-48546476D01*
X154265333Y-48736952D01*
X154265333Y-48879809D01*
X154217714Y-49070285D01*
X154170095Y-49165523D01*
X154074857Y-49260761D01*
X153932000Y-49308380D01*
X153693904Y-49308380D01*
X154646285Y-48403619D02*
X154693904Y-48356000D01*
X154789142Y-48308380D01*
X155027238Y-48308380D01*
X155122476Y-48356000D01*
X155170095Y-48403619D01*
X155217714Y-48498857D01*
X155217714Y-48594095D01*
X155170095Y-48736952D01*
X154598666Y-49308380D01*
X155217714Y-49308380D01*
X139152333Y-72969380D02*
X138819000Y-72493190D01*
X138580904Y-72969380D02*
X138580904Y-71969380D01*
X138961857Y-71969380D01*
X139057095Y-72017000D01*
X139104714Y-72064619D01*
X139152333Y-72159857D01*
X139152333Y-72302714D01*
X139104714Y-72397952D01*
X139057095Y-72445571D01*
X138961857Y-72493190D01*
X138580904Y-72493190D01*
X140104714Y-72969380D02*
X139533285Y-72969380D01*
X139819000Y-72969380D02*
X139819000Y-71969380D01*
X139723761Y-72112238D01*
X139628523Y-72207476D01*
X139533285Y-72255095D01*
X139279333Y-67508380D02*
X138946000Y-67032190D01*
X138707904Y-67508380D02*
X138707904Y-66508380D01*
X139088857Y-66508380D01*
X139184095Y-66556000D01*
X139231714Y-66603619D01*
X139279333Y-66698857D01*
X139279333Y-66841714D01*
X139231714Y-66936952D01*
X139184095Y-66984571D01*
X139088857Y-67032190D01*
X138707904Y-67032190D01*
X139660285Y-66603619D02*
X139707904Y-66556000D01*
X139803142Y-66508380D01*
X140041238Y-66508380D01*
X140136476Y-66556000D01*
X140184095Y-66603619D01*
X140231714Y-66698857D01*
X140231714Y-66794095D01*
X140184095Y-66936952D01*
X139612666Y-67508380D01*
X140231714Y-67508380D01*
X103322380Y-103671666D02*
X102846190Y-104005000D01*
X103322380Y-104243095D02*
X102322380Y-104243095D01*
X102322380Y-103862142D01*
X102370000Y-103766904D01*
X102417619Y-103719285D01*
X102512857Y-103671666D01*
X102655714Y-103671666D01*
X102750952Y-103719285D01*
X102798571Y-103766904D01*
X102846190Y-103862142D01*
X102846190Y-104243095D01*
X102322380Y-103338333D02*
X102322380Y-102719285D01*
X102703333Y-103052619D01*
X102703333Y-102909761D01*
X102750952Y-102814523D01*
X102798571Y-102766904D01*
X102893809Y-102719285D01*
X103131904Y-102719285D01*
X103227142Y-102766904D01*
X103274761Y-102814523D01*
X103322380Y-102909761D01*
X103322380Y-103195476D01*
X103274761Y-103290714D01*
X103227142Y-103338333D01*
X112466380Y-119419666D02*
X111990190Y-119753000D01*
X112466380Y-119991095D02*
X111466380Y-119991095D01*
X111466380Y-119610142D01*
X111514000Y-119514904D01*
X111561619Y-119467285D01*
X111656857Y-119419666D01*
X111799714Y-119419666D01*
X111894952Y-119467285D01*
X111942571Y-119514904D01*
X111990190Y-119610142D01*
X111990190Y-119991095D01*
X111799714Y-118562523D02*
X112466380Y-118562523D01*
X111418761Y-118800619D02*
X112133047Y-119038714D01*
X112133047Y-118419666D01*
X119705380Y-93257666D02*
X119229190Y-93591000D01*
X119705380Y-93829095D02*
X118705380Y-93829095D01*
X118705380Y-93448142D01*
X118753000Y-93352904D01*
X118800619Y-93305285D01*
X118895857Y-93257666D01*
X119038714Y-93257666D01*
X119133952Y-93305285D01*
X119181571Y-93352904D01*
X119229190Y-93448142D01*
X119229190Y-93829095D01*
X118705380Y-92352904D02*
X118705380Y-92829095D01*
X119181571Y-92876714D01*
X119133952Y-92829095D01*
X119086333Y-92733857D01*
X119086333Y-92495761D01*
X119133952Y-92400523D01*
X119181571Y-92352904D01*
X119276809Y-92305285D01*
X119514904Y-92305285D01*
X119610142Y-92352904D01*
X119657761Y-92400523D01*
X119705380Y-92495761D01*
X119705380Y-92733857D01*
X119657761Y-92829095D01*
X119610142Y-92876714D01*
X110958333Y-89987380D02*
X110625000Y-89511190D01*
X110386904Y-89987380D02*
X110386904Y-88987380D01*
X110767857Y-88987380D01*
X110863095Y-89035000D01*
X110910714Y-89082619D01*
X110958333Y-89177857D01*
X110958333Y-89320714D01*
X110910714Y-89415952D01*
X110863095Y-89463571D01*
X110767857Y-89511190D01*
X110386904Y-89511190D01*
X111815476Y-88987380D02*
X111625000Y-88987380D01*
X111529761Y-89035000D01*
X111482142Y-89082619D01*
X111386904Y-89225476D01*
X111339285Y-89415952D01*
X111339285Y-89796904D01*
X111386904Y-89892142D01*
X111434523Y-89939761D01*
X111529761Y-89987380D01*
X111720238Y-89987380D01*
X111815476Y-89939761D01*
X111863095Y-89892142D01*
X111910714Y-89796904D01*
X111910714Y-89558809D01*
X111863095Y-89463571D01*
X111815476Y-89415952D01*
X111720238Y-89368333D01*
X111529761Y-89368333D01*
X111434523Y-89415952D01*
X111386904Y-89463571D01*
X111339285Y-89558809D01*
X126690380Y-53379666D02*
X126214190Y-53713000D01*
X126690380Y-53951095D02*
X125690380Y-53951095D01*
X125690380Y-53570142D01*
X125738000Y-53474904D01*
X125785619Y-53427285D01*
X125880857Y-53379666D01*
X126023714Y-53379666D01*
X126118952Y-53427285D01*
X126166571Y-53474904D01*
X126214190Y-53570142D01*
X126214190Y-53951095D01*
X125690380Y-53046333D02*
X125690380Y-52379666D01*
X126690380Y-52808238D01*
X122261333Y-40076380D02*
X121928000Y-39600190D01*
X121689904Y-40076380D02*
X121689904Y-39076380D01*
X122070857Y-39076380D01*
X122166095Y-39124000D01*
X122213714Y-39171619D01*
X122261333Y-39266857D01*
X122261333Y-39409714D01*
X122213714Y-39504952D01*
X122166095Y-39552571D01*
X122070857Y-39600190D01*
X121689904Y-39600190D01*
X122832761Y-39504952D02*
X122737523Y-39457333D01*
X122689904Y-39409714D01*
X122642285Y-39314476D01*
X122642285Y-39266857D01*
X122689904Y-39171619D01*
X122737523Y-39124000D01*
X122832761Y-39076380D01*
X123023238Y-39076380D01*
X123118476Y-39124000D01*
X123166095Y-39171619D01*
X123213714Y-39266857D01*
X123213714Y-39314476D01*
X123166095Y-39409714D01*
X123118476Y-39457333D01*
X123023238Y-39504952D01*
X122832761Y-39504952D01*
X122737523Y-39552571D01*
X122689904Y-39600190D01*
X122642285Y-39695428D01*
X122642285Y-39885904D01*
X122689904Y-39981142D01*
X122737523Y-40028761D01*
X122832761Y-40076380D01*
X123023238Y-40076380D01*
X123118476Y-40028761D01*
X123166095Y-39981142D01*
X123213714Y-39885904D01*
X123213714Y-39695428D01*
X123166095Y-39600190D01*
X123118476Y-39552571D01*
X123023238Y-39504952D01*
X141549380Y-128674666D02*
X141549380Y-129150857D01*
X140549380Y-129150857D01*
X141549380Y-128341333D02*
X140549380Y-128341333D01*
X140549380Y-128103238D01*
X140597000Y-127960380D01*
X140692238Y-127865142D01*
X140787476Y-127817523D01*
X140977952Y-127769904D01*
X141120809Y-127769904D01*
X141311285Y-127817523D01*
X141406523Y-127865142D01*
X141501761Y-127960380D01*
X141549380Y-128103238D01*
X141549380Y-128341333D01*
X141549380Y-126769904D02*
X141073190Y-127103238D01*
X141549380Y-127341333D02*
X140549380Y-127341333D01*
X140549380Y-126960380D01*
X140597000Y-126865142D01*
X140644619Y-126817523D01*
X140739857Y-126769904D01*
X140882714Y-126769904D01*
X140977952Y-126817523D01*
X141025571Y-126865142D01*
X141073190Y-126960380D01*
X141073190Y-127341333D01*
X141549380Y-125817523D02*
X141549380Y-126388952D01*
X141549380Y-126103238D02*
X140549380Y-126103238D01*
X140692238Y-126198476D01*
X140787476Y-126293714D01*
X140835095Y-126388952D01*
X136390142Y-115641380D02*
X136056809Y-115165190D01*
X135818714Y-115641380D02*
X135818714Y-114641380D01*
X136199666Y-114641380D01*
X136294904Y-114689000D01*
X136342523Y-114736619D01*
X136390142Y-114831857D01*
X136390142Y-114974714D01*
X136342523Y-115069952D01*
X136294904Y-115117571D01*
X136199666Y-115165190D01*
X135818714Y-115165190D01*
X137342523Y-115641380D02*
X136771095Y-115641380D01*
X137056809Y-115641380D02*
X137056809Y-114641380D01*
X136961571Y-114784238D01*
X136866333Y-114879476D01*
X136771095Y-114927095D01*
X137961571Y-114641380D02*
X138056809Y-114641380D01*
X138152047Y-114689000D01*
X138199666Y-114736619D01*
X138247285Y-114831857D01*
X138294904Y-115022333D01*
X138294904Y-115260428D01*
X138247285Y-115450904D01*
X138199666Y-115546142D01*
X138152047Y-115593761D01*
X138056809Y-115641380D01*
X137961571Y-115641380D01*
X137866333Y-115593761D01*
X137818714Y-115546142D01*
X137771095Y-115450904D01*
X137723476Y-115260428D01*
X137723476Y-115022333D01*
X137771095Y-114831857D01*
X137818714Y-114736619D01*
X137866333Y-114689000D01*
X137961571Y-114641380D01*
X121150142Y-123007380D02*
X120816809Y-122531190D01*
X120578714Y-123007380D02*
X120578714Y-122007380D01*
X120959666Y-122007380D01*
X121054904Y-122055000D01*
X121102523Y-122102619D01*
X121150142Y-122197857D01*
X121150142Y-122340714D01*
X121102523Y-122435952D01*
X121054904Y-122483571D01*
X120959666Y-122531190D01*
X120578714Y-122531190D01*
X122102523Y-123007380D02*
X121531095Y-123007380D01*
X121816809Y-123007380D02*
X121816809Y-122007380D01*
X121721571Y-122150238D01*
X121626333Y-122245476D01*
X121531095Y-122293095D01*
X123054904Y-123007380D02*
X122483476Y-123007380D01*
X122769190Y-123007380D02*
X122769190Y-122007380D01*
X122673952Y-122150238D01*
X122578714Y-122245476D01*
X122483476Y-122293095D01*
X130786333Y-123261380D02*
X130310142Y-123261380D01*
X130310142Y-122261380D01*
X131119666Y-123261380D02*
X131119666Y-122261380D01*
X131357761Y-122261380D01*
X131500619Y-122309000D01*
X131595857Y-122404238D01*
X131643476Y-122499476D01*
X131691095Y-122689952D01*
X131691095Y-122832809D01*
X131643476Y-123023285D01*
X131595857Y-123118523D01*
X131500619Y-123213761D01*
X131357761Y-123261380D01*
X131119666Y-123261380D01*
X132691095Y-123261380D02*
X132357761Y-122785190D01*
X132119666Y-123261380D02*
X132119666Y-122261380D01*
X132500619Y-122261380D01*
X132595857Y-122309000D01*
X132643476Y-122356619D01*
X132691095Y-122451857D01*
X132691095Y-122594714D01*
X132643476Y-122689952D01*
X132595857Y-122737571D01*
X132500619Y-122785190D01*
X132119666Y-122785190D01*
X133072047Y-122356619D02*
X133119666Y-122309000D01*
X133214904Y-122261380D01*
X133453000Y-122261380D01*
X133548238Y-122309000D01*
X133595857Y-122356619D01*
X133643476Y-122451857D01*
X133643476Y-122547095D01*
X133595857Y-122689952D01*
X133024428Y-123261380D01*
X133643476Y-123261380D01*
X132707142Y-86431380D02*
X132373809Y-85955190D01*
X132135714Y-86431380D02*
X132135714Y-85431380D01*
X132516666Y-85431380D01*
X132611904Y-85479000D01*
X132659523Y-85526619D01*
X132707142Y-85621857D01*
X132707142Y-85764714D01*
X132659523Y-85859952D01*
X132611904Y-85907571D01*
X132516666Y-85955190D01*
X132135714Y-85955190D01*
X133659523Y-86431380D02*
X133088095Y-86431380D01*
X133373809Y-86431380D02*
X133373809Y-85431380D01*
X133278571Y-85574238D01*
X133183333Y-85669476D01*
X133088095Y-85717095D01*
X133992857Y-85431380D02*
X134611904Y-85431380D01*
X134278571Y-85812333D01*
X134421428Y-85812333D01*
X134516666Y-85859952D01*
X134564285Y-85907571D01*
X134611904Y-86002809D01*
X134611904Y-86240904D01*
X134564285Y-86336142D01*
X134516666Y-86383761D01*
X134421428Y-86431380D01*
X134135714Y-86431380D01*
X134040476Y-86383761D01*
X133992857Y-86336142D01*
X141041380Y-82938857D02*
X140565190Y-83272190D01*
X141041380Y-83510285D02*
X140041380Y-83510285D01*
X140041380Y-83129333D01*
X140089000Y-83034095D01*
X140136619Y-82986476D01*
X140231857Y-82938857D01*
X140374714Y-82938857D01*
X140469952Y-82986476D01*
X140517571Y-83034095D01*
X140565190Y-83129333D01*
X140565190Y-83510285D01*
X141041380Y-81986476D02*
X141041380Y-82557904D01*
X141041380Y-82272190D02*
X140041380Y-82272190D01*
X140184238Y-82367428D01*
X140279476Y-82462666D01*
X140327095Y-82557904D01*
X140374714Y-81129333D02*
X141041380Y-81129333D01*
X139993761Y-81367428D02*
X140708047Y-81605523D01*
X140708047Y-80986476D01*
X109847142Y-99893380D02*
X109513809Y-99417190D01*
X109275714Y-99893380D02*
X109275714Y-98893380D01*
X109656666Y-98893380D01*
X109751904Y-98941000D01*
X109799523Y-98988619D01*
X109847142Y-99083857D01*
X109847142Y-99226714D01*
X109799523Y-99321952D01*
X109751904Y-99369571D01*
X109656666Y-99417190D01*
X109275714Y-99417190D01*
X110799523Y-99893380D02*
X110228095Y-99893380D01*
X110513809Y-99893380D02*
X110513809Y-98893380D01*
X110418571Y-99036238D01*
X110323333Y-99131476D01*
X110228095Y-99179095D01*
X111704285Y-98893380D02*
X111228095Y-98893380D01*
X111180476Y-99369571D01*
X111228095Y-99321952D01*
X111323333Y-99274333D01*
X111561428Y-99274333D01*
X111656666Y-99321952D01*
X111704285Y-99369571D01*
X111751904Y-99464809D01*
X111751904Y-99702904D01*
X111704285Y-99798142D01*
X111656666Y-99845761D01*
X111561428Y-99893380D01*
X111323333Y-99893380D01*
X111228095Y-99845761D01*
X111180476Y-99798142D01*
X128468380Y-109100857D02*
X127992190Y-109434190D01*
X128468380Y-109672285D02*
X127468380Y-109672285D01*
X127468380Y-109291333D01*
X127516000Y-109196095D01*
X127563619Y-109148476D01*
X127658857Y-109100857D01*
X127801714Y-109100857D01*
X127896952Y-109148476D01*
X127944571Y-109196095D01*
X127992190Y-109291333D01*
X127992190Y-109672285D01*
X128468380Y-108148476D02*
X128468380Y-108719904D01*
X128468380Y-108434190D02*
X127468380Y-108434190D01*
X127611238Y-108529428D01*
X127706476Y-108624666D01*
X127754095Y-108719904D01*
X127468380Y-107291333D02*
X127468380Y-107481809D01*
X127516000Y-107577047D01*
X127563619Y-107624666D01*
X127706476Y-107719904D01*
X127896952Y-107767523D01*
X128277904Y-107767523D01*
X128373142Y-107719904D01*
X128420761Y-107672285D01*
X128468380Y-107577047D01*
X128468380Y-107386571D01*
X128420761Y-107291333D01*
X128373142Y-107243714D01*
X128277904Y-107196095D01*
X128039809Y-107196095D01*
X127944571Y-107243714D01*
X127896952Y-107291333D01*
X127849333Y-107386571D01*
X127849333Y-107577047D01*
X127896952Y-107672285D01*
X127944571Y-107719904D01*
X128039809Y-107767523D01*
X148788380Y-70111857D02*
X148312190Y-70445190D01*
X148788380Y-70683285D02*
X147788380Y-70683285D01*
X147788380Y-70302333D01*
X147836000Y-70207095D01*
X147883619Y-70159476D01*
X147978857Y-70111857D01*
X148121714Y-70111857D01*
X148216952Y-70159476D01*
X148264571Y-70207095D01*
X148312190Y-70302333D01*
X148312190Y-70683285D01*
X148788380Y-69159476D02*
X148788380Y-69730904D01*
X148788380Y-69445190D02*
X147788380Y-69445190D01*
X147931238Y-69540428D01*
X148026476Y-69635666D01*
X148074095Y-69730904D01*
X147788380Y-68826142D02*
X147788380Y-68159476D01*
X148788380Y-68588047D01*
X157853142Y-62301380D02*
X157519809Y-61825190D01*
X157281714Y-62301380D02*
X157281714Y-61301380D01*
X157662666Y-61301380D01*
X157757904Y-61349000D01*
X157805523Y-61396619D01*
X157853142Y-61491857D01*
X157853142Y-61634714D01*
X157805523Y-61729952D01*
X157757904Y-61777571D01*
X157662666Y-61825190D01*
X157281714Y-61825190D01*
X158805523Y-62301380D02*
X158234095Y-62301380D01*
X158519809Y-62301380D02*
X158519809Y-61301380D01*
X158424571Y-61444238D01*
X158329333Y-61539476D01*
X158234095Y-61587095D01*
X159376952Y-61729952D02*
X159281714Y-61682333D01*
X159234095Y-61634714D01*
X159186476Y-61539476D01*
X159186476Y-61491857D01*
X159234095Y-61396619D01*
X159281714Y-61349000D01*
X159376952Y-61301380D01*
X159567428Y-61301380D01*
X159662666Y-61349000D01*
X159710285Y-61396619D01*
X159757904Y-61491857D01*
X159757904Y-61539476D01*
X159710285Y-61634714D01*
X159662666Y-61682333D01*
X159567428Y-61729952D01*
X159376952Y-61729952D01*
X159281714Y-61777571D01*
X159234095Y-61825190D01*
X159186476Y-61920428D01*
X159186476Y-62110904D01*
X159234095Y-62206142D01*
X159281714Y-62253761D01*
X159376952Y-62301380D01*
X159567428Y-62301380D01*
X159662666Y-62253761D01*
X159710285Y-62206142D01*
X159757904Y-62110904D01*
X159757904Y-61920428D01*
X159710285Y-61825190D01*
X159662666Y-61777571D01*
X159567428Y-61729952D01*
X131008380Y-57197428D02*
X130532190Y-57530761D01*
X131008380Y-57768857D02*
X130008380Y-57768857D01*
X130008380Y-57387904D01*
X130056000Y-57292666D01*
X130103619Y-57245047D01*
X130198857Y-57197428D01*
X130341714Y-57197428D01*
X130436952Y-57245047D01*
X130484571Y-57292666D01*
X130532190Y-57387904D01*
X130532190Y-57768857D01*
X131008380Y-56768857D02*
X130008380Y-56768857D01*
X130008380Y-56387904D01*
X130056000Y-56292666D01*
X130103619Y-56245047D01*
X130198857Y-56197428D01*
X130341714Y-56197428D01*
X130436952Y-56245047D01*
X130484571Y-56292666D01*
X130532190Y-56387904D01*
X130532190Y-56768857D01*
X130008380Y-55578380D02*
X130008380Y-55387904D01*
X130056000Y-55292666D01*
X130151238Y-55197428D01*
X130341714Y-55149809D01*
X130675047Y-55149809D01*
X130865523Y-55197428D01*
X130960761Y-55292666D01*
X131008380Y-55387904D01*
X131008380Y-55578380D01*
X130960761Y-55673619D01*
X130865523Y-55768857D01*
X130675047Y-55816476D01*
X130341714Y-55816476D01*
X130151238Y-55768857D01*
X130056000Y-55673619D01*
X130008380Y-55578380D01*
X130008380Y-54864095D02*
X130008380Y-54292666D01*
X131008380Y-54578380D02*
X130008380Y-54578380D01*
X131008380Y-53435523D02*
X131008380Y-54006952D01*
X131008380Y-53721238D02*
X130008380Y-53721238D01*
X130151238Y-53816476D01*
X130246476Y-53911714D01*
X130294095Y-54006952D01*
X113236571Y-48712380D02*
X112903238Y-48236190D01*
X112665142Y-48712380D02*
X112665142Y-47712380D01*
X113046095Y-47712380D01*
X113141333Y-47760000D01*
X113188952Y-47807619D01*
X113236571Y-47902857D01*
X113236571Y-48045714D01*
X113188952Y-48140952D01*
X113141333Y-48188571D01*
X113046095Y-48236190D01*
X112665142Y-48236190D01*
X113665142Y-48712380D02*
X113665142Y-47712380D01*
X114046095Y-47712380D01*
X114141333Y-47760000D01*
X114188952Y-47807619D01*
X114236571Y-47902857D01*
X114236571Y-48045714D01*
X114188952Y-48140952D01*
X114141333Y-48188571D01*
X114046095Y-48236190D01*
X113665142Y-48236190D01*
X114855619Y-47712380D02*
X115046095Y-47712380D01*
X115141333Y-47760000D01*
X115236571Y-47855238D01*
X115284190Y-48045714D01*
X115284190Y-48379047D01*
X115236571Y-48569523D01*
X115141333Y-48664761D01*
X115046095Y-48712380D01*
X114855619Y-48712380D01*
X114760380Y-48664761D01*
X114665142Y-48569523D01*
X114617523Y-48379047D01*
X114617523Y-48045714D01*
X114665142Y-47855238D01*
X114760380Y-47760000D01*
X114855619Y-47712380D01*
X115569904Y-47712380D02*
X116141333Y-47712380D01*
X115855619Y-48712380D02*
X115855619Y-47712380D01*
X116427047Y-47807619D02*
X116474666Y-47760000D01*
X116569904Y-47712380D01*
X116808000Y-47712380D01*
X116903238Y-47760000D01*
X116950857Y-47807619D01*
X116998476Y-47902857D01*
X116998476Y-47998095D01*
X116950857Y-48140952D01*
X116379428Y-48712380D01*
X116998476Y-48712380D01*
X113109571Y-45283380D02*
X112776238Y-44807190D01*
X112538142Y-45283380D02*
X112538142Y-44283380D01*
X112919095Y-44283380D01*
X113014333Y-44331000D01*
X113061952Y-44378619D01*
X113109571Y-44473857D01*
X113109571Y-44616714D01*
X113061952Y-44711952D01*
X113014333Y-44759571D01*
X112919095Y-44807190D01*
X112538142Y-44807190D01*
X113538142Y-45283380D02*
X113538142Y-44283380D01*
X113919095Y-44283380D01*
X114014333Y-44331000D01*
X114061952Y-44378619D01*
X114109571Y-44473857D01*
X114109571Y-44616714D01*
X114061952Y-44711952D01*
X114014333Y-44759571D01*
X113919095Y-44807190D01*
X113538142Y-44807190D01*
X114728619Y-44283380D02*
X114919095Y-44283380D01*
X115014333Y-44331000D01*
X115109571Y-44426238D01*
X115157190Y-44616714D01*
X115157190Y-44950047D01*
X115109571Y-45140523D01*
X115014333Y-45235761D01*
X114919095Y-45283380D01*
X114728619Y-45283380D01*
X114633380Y-45235761D01*
X114538142Y-45140523D01*
X114490523Y-44950047D01*
X114490523Y-44616714D01*
X114538142Y-44426238D01*
X114633380Y-44331000D01*
X114728619Y-44283380D01*
X115442904Y-44283380D02*
X116014333Y-44283380D01*
X115728619Y-45283380D02*
X115728619Y-44283380D01*
X116252428Y-44283380D02*
X116871476Y-44283380D01*
X116538142Y-44664333D01*
X116681000Y-44664333D01*
X116776238Y-44711952D01*
X116823857Y-44759571D01*
X116871476Y-44854809D01*
X116871476Y-45092904D01*
X116823857Y-45188142D01*
X116776238Y-45235761D01*
X116681000Y-45283380D01*
X116395285Y-45283380D01*
X116300047Y-45235761D01*
X116252428Y-45188142D01*
X117808571Y-83891380D02*
X117475238Y-83415190D01*
X117237142Y-83891380D02*
X117237142Y-82891380D01*
X117618095Y-82891380D01*
X117713333Y-82939000D01*
X117760952Y-82986619D01*
X117808571Y-83081857D01*
X117808571Y-83224714D01*
X117760952Y-83319952D01*
X117713333Y-83367571D01*
X117618095Y-83415190D01*
X117237142Y-83415190D01*
X118237142Y-83891380D02*
X118237142Y-82891380D01*
X118618095Y-82891380D01*
X118713333Y-82939000D01*
X118760952Y-82986619D01*
X118808571Y-83081857D01*
X118808571Y-83224714D01*
X118760952Y-83319952D01*
X118713333Y-83367571D01*
X118618095Y-83415190D01*
X118237142Y-83415190D01*
X119427619Y-82891380D02*
X119618095Y-82891380D01*
X119713333Y-82939000D01*
X119808571Y-83034238D01*
X119856190Y-83224714D01*
X119856190Y-83558047D01*
X119808571Y-83748523D01*
X119713333Y-83843761D01*
X119618095Y-83891380D01*
X119427619Y-83891380D01*
X119332380Y-83843761D01*
X119237142Y-83748523D01*
X119189523Y-83558047D01*
X119189523Y-83224714D01*
X119237142Y-83034238D01*
X119332380Y-82939000D01*
X119427619Y-82891380D01*
X120141904Y-82891380D02*
X120713333Y-82891380D01*
X120427619Y-83891380D02*
X120427619Y-82891380D01*
X121475238Y-83224714D02*
X121475238Y-83891380D01*
X121237142Y-82843761D02*
X120999047Y-83558047D01*
X121618095Y-83558047D01*
X123388380Y-94154428D02*
X122912190Y-94487761D01*
X123388380Y-94725857D02*
X122388380Y-94725857D01*
X122388380Y-94344904D01*
X122436000Y-94249666D01*
X122483619Y-94202047D01*
X122578857Y-94154428D01*
X122721714Y-94154428D01*
X122816952Y-94202047D01*
X122864571Y-94249666D01*
X122912190Y-94344904D01*
X122912190Y-94725857D01*
X123388380Y-93725857D02*
X122388380Y-93725857D01*
X122388380Y-93344904D01*
X122436000Y-93249666D01*
X122483619Y-93202047D01*
X122578857Y-93154428D01*
X122721714Y-93154428D01*
X122816952Y-93202047D01*
X122864571Y-93249666D01*
X122912190Y-93344904D01*
X122912190Y-93725857D01*
X122388380Y-92535380D02*
X122388380Y-92344904D01*
X122436000Y-92249666D01*
X122531238Y-92154428D01*
X122721714Y-92106809D01*
X123055047Y-92106809D01*
X123245523Y-92154428D01*
X123340761Y-92249666D01*
X123388380Y-92344904D01*
X123388380Y-92535380D01*
X123340761Y-92630619D01*
X123245523Y-92725857D01*
X123055047Y-92773476D01*
X122721714Y-92773476D01*
X122531238Y-92725857D01*
X122436000Y-92630619D01*
X122388380Y-92535380D01*
X122388380Y-91821095D02*
X122388380Y-91249666D01*
X123388380Y-91535380D02*
X122388380Y-91535380D01*
X122388380Y-90440142D02*
X122388380Y-90916333D01*
X122864571Y-90963952D01*
X122816952Y-90916333D01*
X122769333Y-90821095D01*
X122769333Y-90583000D01*
X122816952Y-90487761D01*
X122864571Y-90440142D01*
X122959809Y-90392523D01*
X123197904Y-90392523D01*
X123293142Y-90440142D01*
X123340761Y-90487761D01*
X123388380Y-90583000D01*
X123388380Y-90821095D01*
X123340761Y-90916333D01*
X123293142Y-90963952D01*
X124285571Y-119451380D02*
X123952238Y-118975190D01*
X123714142Y-119451380D02*
X123714142Y-118451380D01*
X124095095Y-118451380D01*
X124190333Y-118499000D01*
X124237952Y-118546619D01*
X124285571Y-118641857D01*
X124285571Y-118784714D01*
X124237952Y-118879952D01*
X124190333Y-118927571D01*
X124095095Y-118975190D01*
X123714142Y-118975190D01*
X124714142Y-119451380D02*
X124714142Y-118451380D01*
X125095095Y-118451380D01*
X125190333Y-118499000D01*
X125237952Y-118546619D01*
X125285571Y-118641857D01*
X125285571Y-118784714D01*
X125237952Y-118879952D01*
X125190333Y-118927571D01*
X125095095Y-118975190D01*
X124714142Y-118975190D01*
X125904619Y-118451380D02*
X126095095Y-118451380D01*
X126190333Y-118499000D01*
X126285571Y-118594238D01*
X126333190Y-118784714D01*
X126333190Y-119118047D01*
X126285571Y-119308523D01*
X126190333Y-119403761D01*
X126095095Y-119451380D01*
X125904619Y-119451380D01*
X125809380Y-119403761D01*
X125714142Y-119308523D01*
X125666523Y-119118047D01*
X125666523Y-118784714D01*
X125714142Y-118594238D01*
X125809380Y-118499000D01*
X125904619Y-118451380D01*
X126618904Y-118451380D02*
X127190333Y-118451380D01*
X126904619Y-119451380D02*
X126904619Y-118451380D01*
X127952238Y-118451380D02*
X127761761Y-118451380D01*
X127666523Y-118499000D01*
X127618904Y-118546619D01*
X127523666Y-118689476D01*
X127476047Y-118879952D01*
X127476047Y-119260904D01*
X127523666Y-119356142D01*
X127571285Y-119403761D01*
X127666523Y-119451380D01*
X127857000Y-119451380D01*
X127952238Y-119403761D01*
X127999857Y-119356142D01*
X128047476Y-119260904D01*
X128047476Y-119022809D01*
X127999857Y-118927571D01*
X127952238Y-118879952D01*
X127857000Y-118832333D01*
X127666523Y-118832333D01*
X127571285Y-118879952D01*
X127523666Y-118927571D01*
X127476047Y-119022809D01*
X124285571Y-115895380D02*
X123952238Y-115419190D01*
X123714142Y-115895380D02*
X123714142Y-114895380D01*
X124095095Y-114895380D01*
X124190333Y-114943000D01*
X124237952Y-114990619D01*
X124285571Y-115085857D01*
X124285571Y-115228714D01*
X124237952Y-115323952D01*
X124190333Y-115371571D01*
X124095095Y-115419190D01*
X123714142Y-115419190D01*
X124714142Y-115895380D02*
X124714142Y-114895380D01*
X125095095Y-114895380D01*
X125190333Y-114943000D01*
X125237952Y-114990619D01*
X125285571Y-115085857D01*
X125285571Y-115228714D01*
X125237952Y-115323952D01*
X125190333Y-115371571D01*
X125095095Y-115419190D01*
X124714142Y-115419190D01*
X125904619Y-114895380D02*
X126095095Y-114895380D01*
X126190333Y-114943000D01*
X126285571Y-115038238D01*
X126333190Y-115228714D01*
X126333190Y-115562047D01*
X126285571Y-115752523D01*
X126190333Y-115847761D01*
X126095095Y-115895380D01*
X125904619Y-115895380D01*
X125809380Y-115847761D01*
X125714142Y-115752523D01*
X125666523Y-115562047D01*
X125666523Y-115228714D01*
X125714142Y-115038238D01*
X125809380Y-114943000D01*
X125904619Y-114895380D01*
X126618904Y-114895380D02*
X127190333Y-114895380D01*
X126904619Y-115895380D02*
X126904619Y-114895380D01*
X127428428Y-114895380D02*
X128095095Y-114895380D01*
X127666523Y-115895380D01*
X154384571Y-73604380D02*
X154051238Y-73128190D01*
X153813142Y-73604380D02*
X153813142Y-72604380D01*
X154194095Y-72604380D01*
X154289333Y-72652000D01*
X154336952Y-72699619D01*
X154384571Y-72794857D01*
X154384571Y-72937714D01*
X154336952Y-73032952D01*
X154289333Y-73080571D01*
X154194095Y-73128190D01*
X153813142Y-73128190D01*
X154813142Y-73604380D02*
X154813142Y-72604380D01*
X155194095Y-72604380D01*
X155289333Y-72652000D01*
X155336952Y-72699619D01*
X155384571Y-72794857D01*
X155384571Y-72937714D01*
X155336952Y-73032952D01*
X155289333Y-73080571D01*
X155194095Y-73128190D01*
X154813142Y-73128190D01*
X156003619Y-72604380D02*
X156194095Y-72604380D01*
X156289333Y-72652000D01*
X156384571Y-72747238D01*
X156432190Y-72937714D01*
X156432190Y-73271047D01*
X156384571Y-73461523D01*
X156289333Y-73556761D01*
X156194095Y-73604380D01*
X156003619Y-73604380D01*
X155908380Y-73556761D01*
X155813142Y-73461523D01*
X155765523Y-73271047D01*
X155765523Y-72937714D01*
X155813142Y-72747238D01*
X155908380Y-72652000D01*
X156003619Y-72604380D01*
X156717904Y-72604380D02*
X157289333Y-72604380D01*
X157003619Y-73604380D02*
X157003619Y-72604380D01*
X157765523Y-73032952D02*
X157670285Y-72985333D01*
X157622666Y-72937714D01*
X157575047Y-72842476D01*
X157575047Y-72794857D01*
X157622666Y-72699619D01*
X157670285Y-72652000D01*
X157765523Y-72604380D01*
X157956000Y-72604380D01*
X158051238Y-72652000D01*
X158098857Y-72699619D01*
X158146476Y-72794857D01*
X158146476Y-72842476D01*
X158098857Y-72937714D01*
X158051238Y-72985333D01*
X157956000Y-73032952D01*
X157765523Y-73032952D01*
X157670285Y-73080571D01*
X157622666Y-73128190D01*
X157575047Y-73223428D01*
X157575047Y-73413904D01*
X157622666Y-73509142D01*
X157670285Y-73556761D01*
X157765523Y-73604380D01*
X157956000Y-73604380D01*
X158051238Y-73556761D01*
X158098857Y-73509142D01*
X158146476Y-73413904D01*
X158146476Y-73223428D01*
X158098857Y-73128190D01*
X158051238Y-73080571D01*
X157956000Y-73032952D01*
X154257571Y-69794380D02*
X153924238Y-69318190D01*
X153686142Y-69794380D02*
X153686142Y-68794380D01*
X154067095Y-68794380D01*
X154162333Y-68842000D01*
X154209952Y-68889619D01*
X154257571Y-68984857D01*
X154257571Y-69127714D01*
X154209952Y-69222952D01*
X154162333Y-69270571D01*
X154067095Y-69318190D01*
X153686142Y-69318190D01*
X154686142Y-69794380D02*
X154686142Y-68794380D01*
X155067095Y-68794380D01*
X155162333Y-68842000D01*
X155209952Y-68889619D01*
X155257571Y-68984857D01*
X155257571Y-69127714D01*
X155209952Y-69222952D01*
X155162333Y-69270571D01*
X155067095Y-69318190D01*
X154686142Y-69318190D01*
X155876619Y-68794380D02*
X156067095Y-68794380D01*
X156162333Y-68842000D01*
X156257571Y-68937238D01*
X156305190Y-69127714D01*
X156305190Y-69461047D01*
X156257571Y-69651523D01*
X156162333Y-69746761D01*
X156067095Y-69794380D01*
X155876619Y-69794380D01*
X155781380Y-69746761D01*
X155686142Y-69651523D01*
X155638523Y-69461047D01*
X155638523Y-69127714D01*
X155686142Y-68937238D01*
X155781380Y-68842000D01*
X155876619Y-68794380D01*
X156590904Y-68794380D02*
X157162333Y-68794380D01*
X156876619Y-69794380D02*
X156876619Y-68794380D01*
X157543285Y-69794380D02*
X157733761Y-69794380D01*
X157829000Y-69746761D01*
X157876619Y-69699142D01*
X157971857Y-69556285D01*
X158019476Y-69365809D01*
X158019476Y-68984857D01*
X157971857Y-68889619D01*
X157924238Y-68842000D01*
X157829000Y-68794380D01*
X157638523Y-68794380D01*
X157543285Y-68842000D01*
X157495666Y-68889619D01*
X157448047Y-68984857D01*
X157448047Y-69222952D01*
X157495666Y-69318190D01*
X157543285Y-69365809D01*
X157638523Y-69413428D01*
X157829000Y-69413428D01*
X157924238Y-69365809D01*
X157971857Y-69318190D01*
X158019476Y-69222952D01*
X149804380Y-57673619D02*
X149328190Y-58006952D01*
X149804380Y-58245047D02*
X148804380Y-58245047D01*
X148804380Y-57864095D01*
X148852000Y-57768857D01*
X148899619Y-57721238D01*
X148994857Y-57673619D01*
X149137714Y-57673619D01*
X149232952Y-57721238D01*
X149280571Y-57768857D01*
X149328190Y-57864095D01*
X149328190Y-58245047D01*
X149804380Y-57245047D02*
X148804380Y-57245047D01*
X148804380Y-56864095D01*
X148852000Y-56768857D01*
X148899619Y-56721238D01*
X148994857Y-56673619D01*
X149137714Y-56673619D01*
X149232952Y-56721238D01*
X149280571Y-56768857D01*
X149328190Y-56864095D01*
X149328190Y-57245047D01*
X148804380Y-56054571D02*
X148804380Y-55864095D01*
X148852000Y-55768857D01*
X148947238Y-55673619D01*
X149137714Y-55626000D01*
X149471047Y-55626000D01*
X149661523Y-55673619D01*
X149756761Y-55768857D01*
X149804380Y-55864095D01*
X149804380Y-56054571D01*
X149756761Y-56149809D01*
X149661523Y-56245047D01*
X149471047Y-56292666D01*
X149137714Y-56292666D01*
X148947238Y-56245047D01*
X148852000Y-56149809D01*
X148804380Y-56054571D01*
X148804380Y-55340285D02*
X148804380Y-54768857D01*
X149804380Y-55054571D02*
X148804380Y-55054571D01*
X149804380Y-53911714D02*
X149804380Y-54483142D01*
X149804380Y-54197428D02*
X148804380Y-54197428D01*
X148947238Y-54292666D01*
X149042476Y-54387904D01*
X149090095Y-54483142D01*
X148804380Y-53292666D02*
X148804380Y-53197428D01*
X148852000Y-53102190D01*
X148899619Y-53054571D01*
X148994857Y-53006952D01*
X149185333Y-52959333D01*
X149423428Y-52959333D01*
X149613904Y-53006952D01*
X149709142Y-53054571D01*
X149756761Y-53102190D01*
X149804380Y-53197428D01*
X149804380Y-53292666D01*
X149756761Y-53387904D01*
X149709142Y-53435523D01*
X149613904Y-53483142D01*
X149423428Y-53530761D01*
X149185333Y-53530761D01*
X148994857Y-53483142D01*
X148899619Y-53435523D01*
X148852000Y-53387904D01*
X148804380Y-53292666D01*
X130833761Y-49783904D02*
X130881380Y-49641047D01*
X130881380Y-49402952D01*
X130833761Y-49307714D01*
X130786142Y-49260095D01*
X130690904Y-49212476D01*
X130595666Y-49212476D01*
X130500428Y-49260095D01*
X130452809Y-49307714D01*
X130405190Y-49402952D01*
X130357571Y-49593428D01*
X130309952Y-49688666D01*
X130262333Y-49736285D01*
X130167095Y-49783904D01*
X130071857Y-49783904D01*
X129976619Y-49736285D01*
X129929000Y-49688666D01*
X129881380Y-49593428D01*
X129881380Y-49355333D01*
X129929000Y-49212476D01*
X130881380Y-48260095D02*
X130881380Y-48831523D01*
X130881380Y-48545809D02*
X129881380Y-48545809D01*
X130024238Y-48641047D01*
X130119476Y-48736285D01*
X130167095Y-48831523D01*
X151591095Y-56792761D02*
X151733952Y-56840380D01*
X151972047Y-56840380D01*
X152067285Y-56792761D01*
X152114904Y-56745142D01*
X152162523Y-56649904D01*
X152162523Y-56554666D01*
X152114904Y-56459428D01*
X152067285Y-56411809D01*
X151972047Y-56364190D01*
X151781571Y-56316571D01*
X151686333Y-56268952D01*
X151638714Y-56221333D01*
X151591095Y-56126095D01*
X151591095Y-56030857D01*
X151638714Y-55935619D01*
X151686333Y-55888000D01*
X151781571Y-55840380D01*
X152019666Y-55840380D01*
X152162523Y-55888000D01*
X152543476Y-55935619D02*
X152591095Y-55888000D01*
X152686333Y-55840380D01*
X152924428Y-55840380D01*
X153019666Y-55888000D01*
X153067285Y-55935619D01*
X153114904Y-56030857D01*
X153114904Y-56126095D01*
X153067285Y-56268952D01*
X152495857Y-56840380D01*
X153114904Y-56840380D01*
X99147380Y-119935523D02*
X100147380Y-119602190D01*
X99147380Y-119268857D01*
X100147380Y-118411714D02*
X100147380Y-118983142D01*
X100147380Y-118697428D02*
X99147380Y-118697428D01*
X99290238Y-118792666D01*
X99385476Y-118887904D01*
X99433095Y-118983142D01*
M02*
